<?xml version="1.0" encoding="utf-8"?>
<!-- Generator: Adobe Illustrator 26.0.1, SVG Export Plug-In . SVG Version: 6.00 Build 0)  -->
<svg version="1.1"
	 id="svg2" xmlns:inkscape="http://www.inkscape.org/namespaces/inkscape" xmlns:sodipodi="http://sodipodi.sourceforge.net/DTD/sodipodi-0.dtd" xmlns:svg="http://www.w3.org/2000/svg"
	 xmlns="http://www.w3.org/2000/svg" xmlns:xlink="http://www.w3.org/1999/xlink" x="0px" y="0px" viewBox="0 0 1000 666.7"
	 style="enable-background:new 0 0 1000 666.7;" xml:space="preserve">
<style type="text/css">
	.st0{fill:#EEFAFE;}
	.st1{fill:#D83722;}
	.st2{clip-path:url(#SVGID_00000058585598616030372300000003735525641209703845_);}
	.st3{fill:#B9E6F9;}
	.st4{fill:#FFFFFF;}
	.st5{fill:#C8ECFB;}
	.st6{fill:#FBC2B5;}
	.st7{fill:#F79986;}
	.st8{fill:#353430;}
	.st9{fill:#E7E7E6;}
	.st10{fill:#3E3E3B;}
	.st11{fill:#2B2A26;}
	.st12{fill:#F25839;}
	.st13{fill:#F5F5F5;}
	.st14{fill:#2D7C6E;}
	.st15{fill:#F04525;}
	.st16{fill:#2A5AA9;}
	.st17{fill:#B0AFAE;}
	.st18{clip-path:url(#SVGID_00000098209216659095558540000008723484397188046263_);}
	.st19{fill:#9AD2E7;}
	.st20{fill:#7ABFD4;}
</style>
<sodipodi:namedview  bordercolor="#666666" borderopacity="1.0" id="namedview4" inkscape:pagecheckerboard="0" inkscape:pageopacity="0.0" inkscape:pageshadow="2" pagecolor="#ffffff">
	</sodipodi:namedview>
<g id="g8" transform="matrix(1.3333333,0,0,-1.3333333,0,666.66667)" inkscape:groupmode="layer" inkscape:label="ink_ext_XXXXXX">
	<g id="g10" transform="scale(0.1)">
		<g id="g14">
			<g>
				<defs>
					<path id="SVGID_1_" d="M768.7,4468.5V651.6h5962.6v3816.9H768.7"/>
				</defs>
				<clipPath id="SVGID_00000158714179630423254550000005443693649460524680_">
					<use xlink:href="#SVGID_1_"  style="overflow:visible;"/>
				</clipPath>
			</g>
		</g>
		<g id="g32">
			<g>
				<defs>
					<path id="SVGID_00000164480124294542077180000013464926982226074544_" d="M768.7,4468.5V651.6h5962.6v3816.9H768.7"/>
				</defs>
				<clipPath id="SVGID_00000016048018884092046400000013957009674310166695_">
					<use xlink:href="#SVGID_00000164480124294542077180000013464926982226074544_"  style="overflow:visible;"/>
				</clipPath>
			</g>
		</g>
		<g id="g50">
			<g>
				<defs>
					<path id="SVGID_00000169543702338942210040000017305483887729011110_" d="M768.7,4468.5V651.6h5962.6v3816.9H768.7"/>
				</defs>
				<clipPath id="SVGID_00000135651039051285582680000016571950046230690705_">
					<use xlink:href="#SVGID_00000169543702338942210040000017305483887729011110_"  style="overflow:visible;"/>
				</clipPath>
			</g>
		</g>
		<g id="g68">
			<g>
				<defs>
					<path id="SVGID_00000013169415083820094380000012373489417576651411_" d="M6731.3,4468.5H768.7 M768.7,4468.5V651.6h5962.6"/>
				</defs>
				<clipPath id="SVGID_00000044878110025654226060000018273379718338134928_">
					<use xlink:href="#SVGID_00000013169415083820094380000012373489417576651411_"  style="overflow:visible;"/>
				</clipPath>
			</g>
		</g>
		<path id="path124" class="st0" d="M3723.1,1208.4c169-125.8,389.9-195.6,586.6-216.2c149.8-15.6,294.9,15.1,440.1,45.7
			c127.3,26.9,254.7,53.8,385.1,49.5c273.6-9.1,552.3-159,824.8-64.6c400.4,138.7,560.9,683.9,587.1,1060.4
			c30.5,437.9-135.1,799.5-359.9,1161.7c-66.6,107.3-139.9,212.2-234.8,295.4c-195.7,171.7-515.5,211.6-766.3,232.4
			c-453.5,37.6-1291.4-96-1422.6-637.8c-19-78.4-24.2-159.5-39.8-238.7c-49.8-253.6-221.7-452.6-280.1-700.7
			c-56.5-240.3-45-507.5,62.9-732.3C3555.1,1361.3,3631.5,1276.6,3723.1,1208.4"/>
		<path id="path126" class="st1" d="M5131.5,3128.9c0-220.9-179.1-400-400-400c-220.9,0-400,179.1-400,400
			c0,220.9,179.1,400,400,400C4952.4,3528.9,5131.5,3349.8,5131.5,3128.9"/>
		<g id="g128">
			<g>
				<defs>
					<path id="SVGID_00000163782453897143708250000001171602020503327374_" d="M3723.1,1208.4c169-125.8,389.9-195.6,586.6-216.2
						c149.8-15.6,294.9,15.1,440.1,45.7c127.3,26.9,254.7,53.8,385.1,49.5c273.6-9.1,552.3-159,824.8-64.6
						c400.4,138.7,560.9,683.9,587.1,1060.4c30.5,437.9-135.1,799.5-359.9,1161.7c-66.6,107.3-139.9,212.2-234.8,295.4
						c-195.7,171.7-515.5,211.6-766.3,232.4c-453.5,37.6-1291.4-96-1422.6-637.8c-19-78.4-24.2-159.5-39.8-238.7
						c-49.8-253.6-221.7-452.6-280.1-700.7c-56.5-240.3-45-507.5,62.9-732.3C3555.1,1361.3,3631.5,1276.6,3723.1,1208.4"/>
				</defs>
				<clipPath id="SVGID_00000050622499705852118470000006177821756138156204_">
					<use xlink:href="#SVGID_00000163782453897143708250000001171602020503327374_"  style="overflow:visible;"/>
				</clipPath>
				<g id="g130" style="clip-path:url(#SVGID_00000050622499705852118470000006177821756138156204_);">
					<path id="path136" class="st3" d="M6636.2,1737.6c-451.2-11.6-875.4-7-1299.4-2.5c-331.6,3.6-663,7.1-1007.1,3
						c-302.7-3.6-615.3-13.3-946.3-34.1c306.1,310.8,683.1,549.5,1019.4,826.2c164.5,135.5,319.3,280,451.2,446.4
						c34.1,42.9,85.8,67.9,140.6,68.1c27.3,0.1,54.7,0.2,81.8,0.2c14,0,28-0.1,41.9-0.2c26.2-0.2,53-0.5,77.8-9.1
						c37.7-13,66.3-43.5,93.5-72.8c106-113.9,215.1-228.4,327.1-341.4C5934.3,2300.9,6275.4,1991.6,6636.2,1737.6"/>
					<path id="path138" class="st4" d="M5616.7,2621.4c-36.8,1.4-74.6,49.9-103.1,25.7c-23.1-19.7-1.8-62.2-20.6-86
						c-15.8-20.1-49.2-12.6-67.9,4.7c-18.7,17.4-30,41.8-49.6,58.2c-19.5,16.4-54.3,20.4-67-1.7c-6.1-10.5-5.1-23.5-4-35.5
						c2.4-25.5,4.8-51,7.2-76.5c1.6-17.4,3.2-35.6-3.2-51.9c-6.3-16.3-23.1-30-40.3-26.7c-13.7,2.7-23.3,14.8-31.6,26
						c-32.7,44.1-65.3,88.2-98,132.4c-13.6,18.3-28.8,37.8-50.8,43.7c-25,6.8-52-6.6-68.7-26.5c-16.6-19.8-25.1-45.1-33.2-69.7
						c-13.7-16.3-42.5-4.2-51.2,15.1c-7.5,16.7-6,35.7-6.3,54.2c0,2.9-0.1,5.9-0.3,8.8c-1.4,21.2-11.4,45.5-32.2,49.8
						c-18.3,3.9-35.3-9.5-48.9-22.3c-58.4-55.1-110.6-116.7-155.2-183.4c-9.8-14.5-19.7-29.9-34.7-38.9c-15-9-36.9-9.4-48.1,4.1
						c-8.3,10-8.4,24.3-8.2,37.3c0.5,26.9,1,53.8,1.4,80.6c0.2,11.3,0.2,23.4-6.2,32.8c-12.1,17.6-38.5,15.3-59.1,9.9
						c-32.2-8.5-86.2-38.4-134.1-55.4c164.5,135.5,319.3,280,451.2,446.4c34.1,42.9,85.8,67.9,140.6,68.1
						c27.3,0.1,54.7,0.2,81.8,0.2c14,0,28-0.1,41.9-0.2c26.2-0.2,53-0.5,77.8-9.1c37.7-13,66.3-43.5,93.5-72.8
						C5395.6,2848.9,5504.7,2734.4,5616.7,2621.4"/>
					<path id="path140" class="st5" d="M3428,1706.7c-2.2,11.9-4.2,23.8-5.9,35.8c298.8,292.3,658.5,522.5,980.8,787.7l0,0
						c47.9,17,101.9,46.9,134.1,55.4c8.5,2.2,18,3.9,27,3.9c12.9,0,25-3.5,32.1-13.8c6.4-9.4,6.4-21.5,6.2-32.8
						c-0.4-26.8-0.9-53.7-1.4-80.6c-0.2-13-0.1-27.3,8.2-37.3c6.1-7.3,15.3-10.6,24.8-10.6c8.1,0,16.4,2.3,23.3,6.4
						c15,9,24.9,24.4,34.7,38.9c44.6,66.7,96.8,128.3,155.2,183.4c12,11.3,26.6,23,42.4,23c2.2,0,4.3-0.2,6.5-0.7
						c20.8-4.3,30.8-28.6,32.2-49.8c0.2-2.9,0.3-5.9,0.3-8.8l0,0l0,0c-6.6-15.3-12.3-28.3-16.9-38.8
						c-132.7-304.6-325.6-583.1-564.8-813.8c-5.6-5.4-11.3-10.8-17-16.2l0,0C4040.6,1734.6,3742.5,1725.6,3428,1706.7L3428,1706.7"
						/>
					<path id="path142" class="st4" d="M4633.8,2414.4c-9.5,0-18.7,3.2-24.8,10.6c-8.3,10-8.4,24.3-8.2,37.3
						c0.5,26.9,1,53.8,1.4,80.6c0.2,11.3,0.2,23.4-6.2,32.8c-7.1,10.4-19.2,13.8-32.1,13.8c-9,0-18.5-1.7-27-3.9
						c-32.2-8.5-86.2-38.4-134.1-55.4c164.5,135.5,319.3,280,451.2,446.4c34.1,42.9,85.8,67.9,140.6,68.1
						c27.3,0.1,54.7,0.2,81.8,0.2c-32.7-162.9-107.1-343-148-438l0,0c0,2.9-0.1,5.9-0.3,8.8c-1.4,21.2-11.4,45.5-32.2,49.8
						c-2.2,0.5-4.4,0.7-6.5,0.7c-15.8,0-30.4-11.7-42.4-23c-58.4-55.1-110.6-116.7-155.2-183.4c-9.8-14.5-19.7-29.9-34.7-38.9
						C4650.2,2416.7,4641.9,2414.4,4633.8,2414.4"/>
				</g>
			</g>
		</g>
		<path id="path144" class="st6" d="M5624.4,2387.1c10.8,9.7,6.3,30.6-7.4,35.1c-9.1,3-19.2-0.7-27.3-5.9
			c-17.8-11.3-30.4-29.1-41.5-47c-4.5-7.4-17.3-28.2-27.1-50.4c-10.9,24.1-23.3,47.5-37.2,70c-8.7,13.9-18.2,27.8-32,36.8
			c-9.5,6.2-22.7,9.4-31.9,2.7c-12.1-8.9-8.9-27.5-4.4-41.8c-7.8,12.1-29.2,11.1-35.8-1.7c-4.4-8.6-2.4-19.1,1.4-27.9
			c8.3-19.4,23.8-34.7,39.8-48.4c7.2-6.2,29.1-25.1,51.9-38.9c-25.4-8-51.2-21.3-59.8-25.6c-18.8-9.6-37.5-20.8-50.1-37.7
			c-5.8-7.7-10.2-17.4-8-26.8c3.4-14,23.9-20.1,34.4-10.1c-7.8-12.9-15.3-30.2-5.6-41.7c7.3-8.7,20.9-8.7,31.6-4.9
			c15.5,5.4,28,16.7,39.7,28.2c14.9,14.7,29.1,30.1,42.4,46.3c-6.6-20.4-10.8-40.3-12.4-47.8c-4.3-20.6-7.4-42.2-2.2-62.7
			c2.4-9.3,7.1-18.9,15.8-23c13.1-6.2,30.7,6,29.5,20.4c5.1-14.1,13.8-30.9,28.9-30.6c11.4,0.2,19.9,10.8,23.7,21.5
			c5.5,15.4,4.6,32.3,3,48.6c-3,31.2-8.5,62.2-16.4,92.6c29.7-10.1,60.2-17.9,91.1-23.2c16.1-2.8,32.9-4.9,48.7-0.6
			c11,3,22.1,10.7,23.2,22c1.4,15-14.7,24.9-28.4,31c14.3-2.2,27.7,14.4,22.5,27.9c-3.5,9-12.7,14.4-21.8,17.5
			c-20,6.7-41.8,5.2-62.6,2.4c-7.5-1-27-3.6-47.4-8.5c15.5,11.1,30.5,22.9,44.9,35.4c12.4,10.8,24.6,22.4,31.2,37.4
			c4.6,10.4,5.7,23.9-2.4,31.9C5655.7,2400,5637.8,2393.8,5624.4,2387.1"/>
		<path id="path146" class="st7" d="M5472.2,2306.7c-11.2,10.2-23.8,24.5-38.1,29.9c-3,1.1-5.2-2.4-4.1-4.9
			c6.4-14.3,22-26.1,33.2-36.8c11.8-11.4,23.5-25.4,37.7-33.7c4.9-2.9,12.6,2.8,8.9,8.2C5500.2,2283.8,5485,2295.1,5472.2,2306.7"/>
		<path id="path148" class="st7" d="M5471.1,2364.6c-3.3,2.3-6.8-1.2-6.4-4.6c1.8-15,13.3-29.6,20.8-42.5
			c7.7-13.2,14.9-30,26.1-40.6c4.7-4.4,13.9-0.9,11.9,6.3c-4.4,15.6-16.3,30.4-24.8,44.1C5491,2339.8,5483.5,2356.1,5471.1,2364.6"
			/>
		<path id="path150" class="st7" d="M5492.4,2256.1c-13.6-3.5-26.2-12.3-38.6-18.9c-13.9-7.3-26.2-16.2-39.6-24.1
			c-4.6-2.7-1.1-9.2,3.8-7.3c14.6,5.8,29,10.1,43.2,17.1c12.6,6.2,27.1,11.5,37.7,20.8C5504.2,2248.4,5499.3,2257.9,5492.4,2256.1"
			/>
		<path id="path152" class="st7" d="M5498.8,2236.7c-11.2-8.9-20.8-20.4-31-30.6c-9.5-9.5-18.3-18.7-25.9-29.8
			c-1.8-2.6,1.5-5.8,4.1-4.4c23.9,12.2,48.3,33.9,64.6,55.1C5516.3,2234.3,5505.2,2241.8,5498.8,2236.7"/>
		<path id="path154" class="st7" d="M5520.5,2223.2c-8.8-9.9-9.5-23.8-12.1-36.4c-2.7-12.8-7.9-28.5-4.3-41.4c0.5-1.8,3-2.9,4.4-1.4
			c8,8.9,10.4,22.2,13.3,33.5c3.3,12.8,6.5,25.7,10.5,38.3C5534.3,2222.3,5525.4,2228.6,5520.5,2223.2"/>
		<path id="path156" class="st7" d="M5536.7,2217.8c0.1-12,2.2-24.1,3.7-36c1.3-10,1.7-22.2,8.2-30.3c1-1.2,3.3-1,4.1,0.4
			c4.9,9.2,2.9,21.2,2.3,31.2c-0.8,11.9-1,24.3-3.2,36.1C5550.1,2227.6,5536.6,2226.5,5536.7,2217.8"/>
		<path id="path158" class="st7" d="M5605.7,2234.4c-13.8,4.2-27.5,9.5-41.7,12.4c-8.2,1.7-11.5-9.3-3.8-12.4
			c13.3-5.4,28-8.1,42.1-11.1c10.9-2.3,24-6.2,34.8-2.8l0.3,1.1C5629.2,2229,5616.2,2231.3,5605.7,2234.4"/>
		<path id="path160" class="st7" d="M5636.4,2270.6c-11.8-0.1-23,1.4-35,0.1c-11.4-1.2-24-2.6-34.8-6.4c-8.5-3-5.9-14.3,3-13.5
			c23,2.1,44.8,11.2,67.2,15.5C5639.1,2266.8,5638.9,2270.6,5636.4,2270.6"/>
		<path id="path162" class="st7" d="M5568.7,2365.7c-9.2-9.5-15.9-20.3-22.1-31.9c-6.1-11.5-13.9-24.2-16.5-37
			c-1.5-7.4,7.2-11.3,11.8-5.3c8,10.3,12.7,24.5,17.7,36.4c5,12,9.3,24,11,36.9C5570.7,2365.8,5569.3,2366.3,5568.7,2365.7"/>
		<path id="path164" class="st7" d="M5615.6,2336.3c-10.8,0.7-20.5-7.2-28.6-13.6c-11.5-9.1-25.6-17.9-35.2-28.7
			c-5.3-5.9,0.5-13.9,7.8-11.1c12.9,4.9,22.9,17.4,32.6,26.8c8.2,7.9,19.2,15.7,23.6,26.3L5615.6,2336.3"/>
		<path id="path166" class="st8" d="M4012.1,3229.9h-11.1v134h11.1V3229.9"/>
		<path id="path168" class="st4" d="M4217.9,1388.9h-439.5v1507.7h439.5V1388.9"/>
		<path id="path170" class="st9" d="M3991.5,1388.9h-213.1v1507.7h213.1V1388.9"/>
		<path id="path172" class="st1" d="M3822.9,1388.9h-44.5v1507.7h44.5V1388.9"/>
		<path id="path174" class="st1" d="M4006.5,1388.9h-16.7v1507.7h16.7V1388.9"/>
		<path id="path176" class="st1" d="M4217.9,1388.9h-44.5v1507.7h44.5V1388.9"/>
		<path id="path178" class="st10" d="M4401.5,2879.8l-61.2-38.9h-333.8v404.3C4082.9,3071.4,4396.6,2882.7,4401.5,2879.8
			L4401.5,2879.8"/>
		<path id="path180" class="st8" d="M4006.5,3245.2v-404.3h-333.8l-61.2,38.9l0.1,0.1C3616.5,2882.7,3930.1,3071.4,4006.5,3245.2"/>
		<path id="path182" class="st11" d="M4034.3,3234.2c0-11.9-12.4-21.6-27.8-21.6s-27.8,9.7-27.8,21.6c0,11.9,12.5,21.6,27.8,21.6
			S4034.3,3246.1,4034.3,3234.2"/>
		<path id="path184" class="st11" d="M4401.5,2879.8l-61.2-38.9h-667.6l-61.2,38.9l0.1,0.1L4401.5,2879.8L4401.5,2879.8"/>
		<path id="path186" class="st1" d="M4206.8,2295.7h-417.3v16.7h417.3V2295.7"/>
		<path id="path188" class="st1" d="M4206.8,2707.4h-417.3v16.7h417.3V2707.4"/>
		<path id="path190" class="st1" d="M4206.8,1895.1h-417.3v16.7h417.3V1895.1"/>
		<path id="path192" class="st1" d="M4206.8,1489h-417.3v16.7h417.3V1489"/>
		<path id="path194" class="st1" d="M3884.1,1388.9h-16.7v111.3h16.7V1388.9"/>
		<path id="path196" class="st1" d="M3945.3,1388.9h-16.7v111.3h16.7V1388.9"/>
		<path id="path198" class="st1" d="M4067.7,1388.9H4051v111.3h16.7V1388.9"/>
		<path id="path200" class="st1" d="M4128.9,1388.9h-16.7v111.3h16.7V1388.9"/>
		<path id="path202" class="st1" d="M3884.1,1795h-16.7v111.3h16.7V1795"/>
		<path id="path204" class="st1" d="M3945.3,1795h-16.7v111.3h16.7V1795"/>
		<path id="path206" class="st1" d="M4067.7,1795H4051v111.3h16.7V1795"/>
		<path id="path208" class="st1" d="M4128.9,1795h-16.7v111.3h16.7V1795"/>
		<path id="path210" class="st1" d="M3884.1,2195.5h-16.7v111.3h16.7V2195.5"/>
		<path id="path212" class="st1" d="M3945.3,2195.5h-16.7v111.3h16.7V2195.5"/>
		<path id="path214" class="st1" d="M4067.7,2195.5H4051v111.3h16.7V2195.5"/>
		<path id="path216" class="st1" d="M4128.9,2195.5h-16.7v111.3h16.7V2195.5"/>
		<path id="path218" class="st1" d="M3884.1,2607.2h-16.7v111.3h16.7V2607.2"/>
		<path id="path220" class="st1" d="M3945.3,2607.2h-16.7v111.3h16.7V2607.2"/>
		<path id="path222" class="st1" d="M4067.7,2607.2H4051v111.3h16.7V2607.2"/>
		<path id="path224" class="st1" d="M4128.9,2607.2h-16.7v111.3h16.7V2607.2"/>
		<path id="path226" class="st10" d="M4362.6,2484.8l-57.6-50.1h-314.5v183.6H4220C4297.1,2538.3,4362.6,2484.8,4362.6,2484.8"/>
		<path id="path228" class="st8" d="M4000.9,2618.4v-183.6h-305.6l-56,50.1c0,0,63.6,53.5,138.5,133.5H4000.9"/>
		<path id="path230" class="st11" d="M4362.6,2484.8l-56-50.1h-611.2l-56,50.1H4362.6"/>
		<path id="path232" class="st10" d="M4362.6,2084.3l-57.6-50.1h-314.5v183.6H4220C4297.1,2137.7,4362.6,2084.3,4362.6,2084.3"/>
		<path id="path234" class="st8" d="M4000.9,2217.8v-183.6h-305.6l-56,50.1c0,0,63.6,53.5,138.5,133.5H4000.9"/>
		<path id="path236" class="st11" d="M4362.6,2084.3l-56-50.1h-611.2l-56,50.1H4362.6"/>
		<path id="path238" class="st10" d="M4362.6,1683.7l-57.6-50.1h-314.5v183.6H4220C4297.1,1737.2,4362.6,1683.7,4362.6,1683.7"/>
		<path id="path240" class="st8" d="M4000.9,1817.2v-183.6h-305.6l-56,50.1c0,0,63.6,53.5,138.5,133.5H4000.9"/>
		<path id="path242" class="st11" d="M4362.6,1683.7l-56-50.1h-611.2l-56,50.1H4362.6"/>
		<path id="path244" class="st1" d="M3942.3,2712.2h-80.2v100.2h80.2V2712.2"/>
		<path id="path246" class="st1" d="M3942.3,2301.2h-80.2v100.2h80.2V2301.2"/>
		<path id="path248" class="st1" d="M3942.3,1910.2h-80.2v100.2h80.2V1910.2"/>
		<path id="path250" class="st1" d="M3942.3,1499.1h-80.2v100.2h80.2V1499.1"/>
		<path id="path252" class="st1" d="M5486.3,2024H4433.9v54.9h1052.4V2024"/>
		<path id="path254" class="st12" d="M5478.2,2179.6H4425.9v82.4h1052.4V2179.6"/>
		<path id="path256" class="st1" d="M5543.5,2239H4376.7v54.9h1166.8V2239"/>
		<path id="path258" class="st8" d="M5601.8,2293.9H4311.5l52.3,54.9h1198.7L5601.8,2293.9"/>
		<path id="path260" class="st12" d="M4787.4,1511.5h-237.9v54.9h237.9V1511.5"/>
		<path id="path262" class="st12" d="M4787.4,1731.2h-237.9v54.9h237.9V1731.2"/>
		<path id="path264" class="st1" d="M4837.7,1841v-462.1h-77.8V1841H4837.7"/>
		<path id="path266" class="st1" d="M4650.1,2266.5v-887.6H4554v887.6H4650.1"/>
		<path id="path268" class="st12" d="M4586,1511.5h-192.2v54.9H4586V1511.5"/>
		<path id="path270" class="st12" d="M4586,1731.2h-192.2v54.9H4586V1731.2"/>
		<path id="path272" class="st1" d="M4448.8,1841v-462.1H4371V1841H4448.8"/>
		<path id="path274" class="st12" d="M4476.2,1822.7h-128.1v45.8h128.1V1822.7"/>
		<path id="path276" class="st8" d="M4489.9,1854.7h-155.6l13.7,41.2h128.1L4489.9,1854.7"/>
		<path id="path278" class="st12" d="M4865.1,1822.7H4737v45.8h128.1V1822.7"/>
		<path id="path280" class="st8" d="M4878.9,1854.7h-155.6l13.7,41.2h128.1L4878.9,1854.7"/>
		<path id="path282" class="st8" d="M4371,1442.9h77.8v-64.1H4371V1442.9"/>
		<path id="path284" class="st8" d="M4554,1442.9h96.1v-64.1H4554V1442.9"/>
		<path id="path286" class="st8" d="M4837.7,1442.9v-64.1h-77.8v64.1H4837.7"/>
		<path id="path288" class="st12" d="M5487.4,1511.5h-237.9v54.9h237.9V1511.5"/>
		<path id="path290" class="st12" d="M5487.4,1731.2h-237.9v54.9h237.9V1731.2"/>
		<path id="path292" class="st1" d="M5537.7,1841v-462.1h-77.8V1841H5537.7"/>
		<path id="path294" class="st1" d="M5350.1,2266.5v-887.6h-96.1v887.6H5350.1"/>
		<path id="path296" class="st12" d="M5286.1,1511.5h-192.2v54.9h192.2V1511.5"/>
		<path id="path298" class="st12" d="M5286.1,1731.2h-192.2v54.9h192.2V1731.2"/>
		<path id="path300" class="st1" d="M5148.8,1841v-462.1H5071V1841H5148.8"/>
		<path id="path302" class="st12" d="M5176.3,1822.7h-128.1v45.8h128.1V1822.7"/>
		<path id="path304" class="st8" d="M5190,1854.7h-155.6l13.7,41.2h128.1L5190,1854.7"/>
		<path id="path306" class="st12" d="M5565.2,1822.7h-128.1v45.8h128.1V1822.7"/>
		<path id="path308" class="st8" d="M5578.9,1854.7h-155.6l13.7,41.2h128.1L5578.9,1854.7"/>
		<path id="path310" class="st8" d="M5071,1442.9h77.8v-64.1H5071V1442.9"/>
		<path id="path312" class="st8" d="M5254.1,1442.9h96.1v-64.1h-96.1V1442.9"/>
		<path id="path314" class="st8" d="M5537.7,1442.9v-64.1h-77.8v64.1H5537.7"/>
		<path id="path316" class="st13" d="M5746.5,2729.8c-40.6-40.5-79.1-85.2-110.3-133.5c-3-4.6,4.5-9.6,7.9-5.4
			c35.8,45.1,71.4,89.2,111,131.2C5760.2,2727.6,5751.7,2735,5746.5,2729.8"/>
		<path id="path318" class="st13" d="M5809.6,2620.8c-31.1-8-62.6-14.6-94.5-18.7c-24.5-3.2-50.2-2.4-73.8-10.1
			c-2.1-0.7-1.9-3.7,0.2-4.3c52.2-13.6,121.2,6.5,172.4,19.8C5822.6,2609.8,5818.2,2623,5809.6,2620.8"/>
		<path id="path320" class="st13" d="M5839.2,2494.2c-40.6-40.5-79.1-85.2-110.3-133.4c-3-4.6,4.5-9.6,7.9-5.4
			c35.8,45.1,71.4,89.2,111,131.2C5852.9,2492,5844.4,2499.4,5839.2,2494.2"/>
		<path id="path322" class="st13" d="M5902.2,2385.2c-31.1-8-62.6-14.6-94.5-18.7c-24.5-3.2-50.2-2.4-73.8-10.1
			c-2.1-0.7-1.9-3.7,0.2-4.3c52.2-13.6,121.2,6.5,172.4,19.8C5915.3,2374.2,5910.9,2387.5,5902.2,2385.2"/>
		<path id="path324" class="st13" d="M5945.8,2239.8c-40.6-40.5-79.1-85.2-110.3-133.5c-3-4.6,4.5-9.6,7.9-5.4
			c35.8,45.1,71.4,89.2,111,131.2C5959.5,2237.5,5951.1,2245,5945.8,2239.8"/>
		<path id="path326" class="st13" d="M6008.9,2130.8c-31.1-8.1-62.6-14.6-94.5-18.7c-24.5-3.2-50.2-2.4-73.8-10.1
			c-2.1-0.7-1.9-3.7,0.2-4.2c52.2-13.6,121.2,6.5,172.4,19.8C6021.9,2119.8,6017.5,2133,6008.9,2130.8"/>
		<path id="path328" class="st4" d="M6449.5,2858.1c0.5-5.1-189.9-115.5-285.2-158.2c-51.8-23.3-104-45.9-157.9-64
			c-65.5-22-133.2-37.3-201.7-45.6c-4.4-0.5-8.9-1-13,0.6c-3.4,1.3-6,3.9-8.5,6.5c-18.3,19.2-32.6,42.3-41.8,67.2
			c-6.6,17.9-15.4,44.3-12.8,63.7c1.8,13.3,20.4,19,31,22.7c10.4,3.7,20.5,7.5,30.6,11.5c6.4,2.6,12.8,5.2,19.1,8
			c39.2,17.1,78.3,34.4,117.9,50.6c19.3,7.9,38.6,15.8,57.9,23.6c130.5,53.3,262.3,104.2,393.4,157.4c8.5,3.5,17.1,6.9,25.6,10.4
			c7.7-26.8,10.4-55.1,7.6-82.9c-0.6-6-1.4-12.2,0.3-18.1C6413.6,2906.2,6449.3,2860.8,6449.5,2858.1"/>
		<path id="path330" class="st14" d="M6363,2936.8c14.4-7.8,22.1-26.3,17.4-42c19.1-1.1,35.8-18.3,36.4-37.4
			c-20.1-5-40.9-6.5-61.5-4.4c-9.6,1-20,2.7-28.5-1.9c-4.7-2.5-8.3-6.7-11.9-10.7l-1.5-1.6c-1.1-1.2-2.2-2.4-3.4-3.6
			c-8.8-9.2-18.2-17.8-28.1-25.8c-1.9-1.5-3.7-2.9-5.6-4.4c-14.5-11-30-20.7-46.2-29c-2-1.1-4.1-2.1-6.2-3.1
			c-18.6-8.9-38-16.1-58-21.2c-2.5-0.7-5-1.3-7.5-1.9c-14.5-3.4-29.3-5.8-44.1-7.1c-2.3-0.2-4.5-0.4-6.8-0.5
			c-10.4-0.7-20.8-0.9-31.2-0.5c-2.5,0.1-5,0.2-7.5,0.4c-2.4-2-4.7-4.1-7.1-6.1c-17.2-14.6-35-28.8-55.7-37.6
			c-23.5-10.1-51.7-12.5-74.2-0.1c-2.2,1.2-4.3,2.5-6.8,2.7c-2.2,0.1-4.4-0.7-6.5-1.5c-29.5-10.9-63.9-1.8-88.9,17.2
			c-16.2,12.3-29,28.3-39.6,45.9c6.4,2.6,12.8,5.2,19.1,8c39.2,17.1,78.3,34.4,117.9,50.6c19.3,7.9,38.6,15.8,57.9,23.6
			c15.1,6.2,30.3,12.3,45.5,18.5c4.7,1.9,9.4,3.8,14.1,5.7c13.2,5.3,26.3,10.6,39.5,15.8c2.4,1,4.8,1.9,7.2,2.9
			c18.5,7.4,37,14.8,55.5,22.1c2.5,1,4.9,1.9,7.4,2.9c16.6,6.6,33.3,13.2,50,19.8c2.3,0.9,4.6,1.8,6.9,2.8c7.7,3,15.4,6.1,23,9.1
			c2.6,1,5.2,2.1,7.8,3.1c5,2,9.9,3.9,14.9,5.9c2.7,1.1,5.4,2.1,8.1,3.2c11.1,4.4,22.3,8.9,33.4,13.3c2.4,1,4.8,1.9,7.1,2.8
			c24.4,9.8,48.8,19.6,73.2,29.5C6384.7,2979.5,6379.6,2953.5,6363,2936.8"/>
		<path id="path332" class="st4" d="M5960.9,2801.5c-13.9,4.4-29.3-1-38.6-12c-9.9-11.6-14.3-27.6-6.5-41.8
			c7.8-14,24.5-20.9,40-17.4c15,3.4,28.5,16.1,30.2,31.8c0.6,5.7-0.7,11.3-3.3,16.4C5979.9,2789.2,5971.9,2798,5960.9,2801.5"/>
		<path id="path334" class="st14" d="M5943.9,2786.3c-5.5-1.1-10.4-4.1-13.8-9c-3.6-5.1-4.7-11.4-3.4-17.5
			c2-9.2,10.7-15.2,19.6-16.1c14.8-1.6,28.2,11.5,25.3,26.5C5969.2,2783.2,5955.5,2790.3,5943.9,2786.3"/>
		<path id="path336" class="st4" d="M5948.6,2768.7c-3.9,4.1-10.2,3.3-13.5-1c-2-2.5-2.1-5.7-0.9-8.4l0.2-0.7
			c2.6-5,9.5-6.4,13.8-2.8C5952.1,2759.2,5952,2765.1,5948.6,2768.7"/>
		<path id="path338" class="st4" d="M5979.5,2828.4c-3.2,1.8-7.2,1.6-10-0.9c-3.2-2.9-5.1-8-5.2-12.2c-0.1-2.9,1.6-5.7,4.2-6.9
			c2.5-1.2,6-0.9,8,1.2c2.5,2.7,5.2,6,6.5,9.4C5984.3,2822.2,5982.6,2826.7,5979.5,2828.4"/>
		<path id="path340" class="st4" d="M5999.5,2807.9c-3.5,0.6-6.5-0.6-9.5-2.1c-2.9-1.4-6-3-7.6-5.9c-2.4-4.2-0.9-10.8,4.4-12
			c4.2-1,7.4,0.2,11.2,1.7c3.3,1.3,5.9,3.1,7.9,6.1c1.5,2.3,1.6,5.4,0.3,7.9C6004.7,2806.3,6002.3,2807.4,5999.5,2807.9"/>
		<path id="path342" class="st4" d="M6015.7,2774.2c-1.9,0.6-3.8,0.6-5.7,0.3l-1-0.2l-2.2,0.1l-0.2,0l-2.5,0.4c-3-0.1-5.7-1.5-7-4.3
			c-1.2-2.5-0.9-6.1,1.2-8.1c2.2-2.1,5-3.3,8-4c3.4-0.8,7.8-1.6,10.9,0.5c2.9,1.9,4.7,4.5,4.4,8.1
			C6021.2,2770.3,6018.9,2773.1,6015.7,2774.2"/>
		<path id="path344" class="st4" d="M6058.4,2848.4c1.2-2.1,2.3-4.4,3.3-6.6c8.4-17.8,13.5-37.6,15.8-55.9c0.3-2.8,0.6-5.5,0.8-8.1
			l0.2-2.4c0.8-11.4,0.1-22.8-2.1-33.6c-5.4-27.2-20.2-51.4-45.9-65.6c-2.3-1.3-4.7,2.1-2.7,3.9c16.9,14.7,28.5,34.5,34,56
			c3.2,12.2,4.5,24.9,3.7,37.4c-1.8,29.5-13,66.8-35,89.7c4.7,1.9,9.4,3.8,14.1,5.7C6049.9,2862.7,6054.5,2855.7,6058.4,2848.4"/>
		<path id="path346" class="st4" d="M6091.4,2887.6l0.2-2.6c0.1-1.2,0.1-2.4,0-3.6c-0.1-1.2-0.2-2.4-0.4-3.6
			c-1.8-11-8.8-20-17.2-27.2c17.7,0.6,31.9-5.9,39.4-26.3l0.4-1.2c1-3.1,1.7-6.1,1.9-8.9c1.2-16.9-11.9-27.7-28.1-32.9
			c11.1-5.2,20.6-13.6,24.7-24.7c0.6-1.6,1.1-3.2,1.5-5c0.6-2.8,0.9-5.8,0.8-8.9c0-1.1-0.1-2.2-0.2-3.3c-2.2-19-19.6-29.6-37.4-24.1
			c-1.8,0.6-0.9,3.3,0.9,2.8c17.1-4.2,29,9.2,30,24.1c0.3,3.9-0.2,7.9-1.6,11.6c-4.5,12.8-15.4,20-27.7,23.8
			c-1.2,0.4-2.4,0.7-3.6,1.1c-3.3,0.9-2.9,5.9,0.3,6.5l2.5,0.5c20.4,4.6,38.8,16.5,27.3,40.2c-9.2,19.1-25.1,19.4-43.1,15.7l-1-0.2
			c-4.1-0.9-5.9,4.7-2.4,6.8l0.1,0.1c10.2,6.1,20.4,14.3,24.4,26c1.1,3.4,1.6,6.9,1.4,10.3C6086.6,2885.7,6089,2886.6,6091.4,2887.6
			"/>
		<path id="path348" class="st4" d="M6092.7,2885c-4.8,0.4-5.2-7.1-0.4-7.5c12.6-1.1,29.9-1.4,37-14.2c9.3-16.6-1.9-35.1-17.8-41
			c-3.1-1.1-2-5.6,0.6-6.5c31.9-11.4,30.2-51.3-2.1-59.6c-2.4-0.6-2.1-4,0.4-4.2c16.2-1.5,30.1,13.1,32.3,28.5
			c2.4,16.6-7.8,30.6-21.3,38.6c14,7.9,21.3,23.4,17.3,40.1C6133.3,2881.1,6112.2,2883.3,6092.7,2885"/>
		<path id="path350" class="st4" d="M6154.3,2912.6c2-4.3,3.5-8.8,4.4-13.4c0.5-2.3,0.7-4.8,0.9-7.1c0.7-12.7-2.9-25.8-11.2-37.1
			c8.8-5.6,14.3-13.7,16.5-22.5c0.7-2.8,1.1-5.6,1.2-8.4c0.3-12.6-5.8-25.1-18.4-32.3c8.4-7.8,15.4-17.3,17.7-28.3
			c0.2-1.1,0.4-2.2,0.6-3.4c0.3-2.6,0.4-5.4,0-8.2l-0.1-1.2c-1.9-14.5-12.8-27.9-28-28.1c-1,0-1.4,1.6-0.4,2
			c12.8,5.7,19.5,15.1,21.1,25.4c2,12.7-3.9,26.8-15.7,36.8c-1.1,0.9-2.3,1.9-3.5,2.7c-2.1,1.5-2.3,5,0.3,6.3l1.3,0.6
			c23,12.1,23.4,42.2-0.5,54.1l-0.8,0.6c-1.3,1.2-1.2,3.2-0.4,4.7l0.6,0.9c13.8,16.1,15.4,36.6,7,53.1
			C6149.4,2910.6,6151.8,2911.6,6154.3,2912.6"/>
		<path id="path352" class="st4" d="M6160.8,2899.8c-5-0.1-5.5-8-0.4-7.9c14,0.3,27-9.4,29.3-23.6c2.9-17-10.5-31-25.5-36.2
			c-3.5-1.2-3.9-5.7-0.3-7.2c14.1-6,28.4-16.1,29.8-32.8c1.8-21.4-16-23.1-30.4-29.8c-0.8-0.4-0.7-1.8,0.2-2
			c18.6-4.6,36.6,8.4,37.6,27.6c0.9,18.7-12.1,31.5-27.1,40c14.3,7.1,24.9,21.4,24,38.1C6196.8,2885.4,6179.7,2900.3,6160.8,2899.8"
			/>
		<path id="path354" class="st4" d="M6220.1,2917.1l0.3-1c0.4-1.3,0.7-2.6,1-3.9c0.2-1,0.4-1.9,0.5-2.9c2.6-15.2-1-30.5-13.3-39
			c7.8-4.1,12.6-11.8,14-21.1c0.3-1.9,0.5-3.9,0.4-6l0-1.3c-0.4-14.4-7.4-26.6-18-35.5c10.8-3.8,18.6-12,22.6-21.5
			c0.6-1.3,1-2.6,1.5-3.9c0.5-1.6,0.9-3.2,1.1-4.9c2.4-14.7-4.1-30.1-22.5-36.6c-1.2-0.4-1.6,1.4-0.7,1.9
			c11.7,7.5,17.5,20,17.1,31.6c-0.5,12.9-8.5,24.8-24.6,27.9l-2.6,0.4c-3.6,0.4-4.5,4.8-1.5,6.7l0.6,0.4
			c8.4,5.6,14.8,13.2,17.9,22.9c4.1,12.8,1.6,32.3-14.8,34.6l-1,0.3c-2.5,1.2-3.8,5-1,6.5l0.5,0.2c23.2,8.4,21.2,41.2,6.8,59.5
			c2.3,0.9,4.6,1.8,6.9,2.8C6215.1,2929.8,6218.2,2923.6,6220.1,2917.1"/>
		<path id="path356" class="st4" d="M6222.1,2917.4c-5.1,0.6-5.5-7.4-0.4-8c36.3-4.2,36.4-53.1,1.5-60c-4-0.8-3.5-5.9-0.3-7.3
			c27.2-12.1,30.3-46.2,1.8-58.6c-1.4-0.6-0.9-3.1,0.7-3c14.5,0.9,24.9,12.8,26.9,27c2.1,15.3-6.3,28.7-18.3,37
			C6269,2858.1,6263.1,2912.7,6222.1,2917.4"/>
		<path id="path358" class="st4" d="M6241.9,2947.4c0.1-4.9-0.6-9.7-2-14c-1.3-4.4-4.8-12.8-9.7-17.7c-2.6-2.6-5.6-4.1-8.8-3.4
			l-1.6,0.5l-0.6,1.3l1.2,2.1l1.1,1.3c1.4,1.4,2.9,2.6,4.3,4.2c3.1,3.7,5.2,8.1,6.6,12.7c1.1,3.5,1.6,6.8,1.7,10
			C6236.7,2945.3,6239.3,2946.3,6241.9,2947.4"/>
		<path id="path360" class="st4" d="M6280,2933.4l0.4-1.7c0.6-2.5,1-4.9,1.2-7.4c0.7-13.1-5-25.5-15.8-33
			c10.7-5.2,17.8-15.8,18.1-28.2l0-0.9c0-2.6-0.2-4.9-0.8-7.3c-2.5-12.6-11.7-21.7-22.2-29.2c9.1-2.9,16.6-8.7,21-16.4
			c4.5-7.7,5.8-17.3,2.2-27.4c-0.5-1.5-2.7-1.1-2.7,0.5c0.4,8.4-1.3,16.3-5.1,22.6c-4.9,8.4-13.3,14-24.9,15l-0.4,0
			c-3.7,0.3-4.5,4.6-2,6.7l0.5,0.4c10.7,6.8,22.2,14.4,25.7,27.4c3.9,14.9-4.6,28.7-19.1,32l-1.1,0.2c-3,0.6-3.5,5.3-1,6.8l0.4,0.2
			c18.8,7.4,24.4,28,14.9,45.3c-3.2,5.8-7.5,10.4-12.5,14.1c2.7,1.1,5.4,2.1,8.1,3.2C6271.8,2950.5,6277.2,2942.9,6280,2933.4"/>
		<path id="path362" class="st4" d="M6290.4,2929.7c32.2-12.1,32.8-57.4,2.2-71.2c9.3-5,16.3-11.4,20.9-19.6
			c3.7-6.8,5.7-14.8,5.8-24.3c0-1.3-2-1.2-2,0.1c-0.2,7.9-2.9,14.8-7.2,20.6c-6.5,9-16.6,15.7-26.9,19.8l-1.6,0.6
			c-3.3,1.2-3.3,6.2,0.3,7l2,0.5c33.1,9.1,31,54.2-2.4,61.2l-1,0.2c-3.4,0.6-3.1,5.5-0.6,6.9l0.4,0.2c14.4,8.5,20.8,23.6,17.9,38
			c2.4,1,4.8,1.9,7.1,2.8C6309.1,2957,6303.8,2940.7,6290.4,2929.7"/>
		<path id="path364" class="st4" d="M6348.4,2876.3c-3.1,0.9-6.6,0.1-9.8-0.4c-3.2-0.5-6.7-1.2-9.5-3c-2-1.2-1.5-4.3,1-4.5
			c3.1-0.3,6.3,0.3,9.4,0.6c3.2,0.3,6.4,0,9.4,1.2C6351.7,2871.3,6350.9,2875.5,6348.4,2876.3"/>
		<path id="path366" class="st4" d="M6344.1,2898.5c-5.8,0-13.7-3-17.7-7.2c-2.3-2.4-0.4-6.3,3-5.7c2.8,0.5,5.4,1.9,8,2.8
			c2.8,1,5.6,1.7,8.2,3.1C6348.7,2893.2,6347.9,2898.5,6344.1,2898.5"/>
		<path id="path368" class="st4" d="M6338.4,2918.3c-3.4-1-6.6-2.4-9.9-3.9c-1.6-0.7-3.4-1.5-4.8-2.6c-1.3-1-1.4-1.9-2.2-3.3
			c-0.5-0.8-0.1-2,0.8-2.2c1.4-0.4,2.2-0.9,3.7-0.8c1.7,0.1,3.6,1,5.2,1.6c3.3,1.2,6.7,2.5,9.8,4.2
			C6344.5,2913.3,6342.6,2919.6,6338.4,2918.3"/>
		<path id="path370" class="st4" d="M6336.1,2935.1c-3.4,1-6-0.6-9.1-2c-3.4-1.6-7.2-2.8-10.3-4.9c-2.2-1.5-1.9-5.2,1.2-5.4
			c4.1-0.2,8.1,1.2,11.9,2.5c3.5,1.2,6.8,2.4,8.2,6.1C6338.6,2932.8,6337.6,2934.7,6336.1,2935.1"/>
		<path id="path372" class="st4" d="M6329.4,2956.3c-3.9-1.1-7.2-3.5-10.6-5.8c-2.5-1.7-5.7-3.2-6.1-6.5l0.8-1.5
			c3-1.8,6.6,0.2,9.5,1.5c3.8,1.7,7.4,3.8,10,7.2C6334.7,2953.5,6332.1,2957,6329.4,2956.3"/>
		<path id="path374" class="st4" d="M6543.4,2624.2c0.5-5.1-189.9-115.5-285.2-158.3c-51.8-23.3-104-45.9-157.9-63.9
			c-65.5-22-133.2-37.3-201.7-45.6c-4.4-0.5-8.9-1-13,0.6c-3.4,1.3-6,3.9-8.5,6.5c-18.4,19.2-32.6,42.3-41.8,67.2
			c-6.6,17.9-15.4,44.3-12.8,63.6c1.8,13.3,20.4,19,30.9,22.7c10.4,3.7,20.5,7.4,30.6,11.5c6.4,2.6,12.8,5.2,19.1,8
			c39.2,17.1,78.3,34.4,117.9,50.6c19.3,7.9,38.6,15.8,57.9,23.6c130.5,53.3,262.3,104.2,393.4,157.4c8.5,3.5,17.1,6.9,25.6,10.4
			c7.7-26.8,10.4-55.1,7.6-82.9c-0.6-6-1.4-12.3,0.3-18.1C6507.5,2672.4,6543.1,2626.9,6543.4,2624.2"/>
		<path id="path376" class="st15" d="M6456.9,2703c14.4-7.8,22.1-26.3,17.4-42c19.1-1.1,35.8-18.3,36.4-37.4
			c-20-5-40.9-6.5-61.5-4.4c-9.6,1-20,2.7-28.5-1.9c-4.7-2.5-8.3-6.7-11.9-10.7l-1.5-1.6c-1.1-1.2-2.2-2.4-3.4-3.6
			c-8.8-9.2-18.1-17.8-28.1-25.8c-1.8-1.5-3.7-2.9-5.6-4.4c-14.5-11-30-20.7-46.2-29c-2-1.1-4.1-2.1-6.2-3.1
			c-18.6-8.9-38-16.1-58-21.2c-2.5-0.7-5-1.3-7.5-1.9c-14.5-3.4-29.2-5.8-44.1-7.1c-2.3-0.2-4.5-0.4-6.8-0.5
			c-10.4-0.7-20.8-0.9-31.2-0.5c-2.5,0.1-5,0.2-7.5,0.3c-2.4-2-4.7-4.1-7.1-6.1c-17.2-14.6-35-28.8-55.7-37.6
			c-23.5-10.1-51.7-12.5-74.2-0.2c-2.1,1.2-4.3,2.5-6.8,2.7c-2.2,0.1-4.4-0.7-6.5-1.5c-29.6-10.9-63.9-1.8-88.9,17.2
			c-16.2,12.3-29.1,28.3-39.6,45.9c6.4,2.6,12.8,5.2,19.1,8c39.2,17.1,78.3,34.4,117.9,50.6c19.3,7.9,38.6,15.8,57.9,23.6
			c15.1,6.2,30.3,12.3,45.5,18.5c4.7,1.9,9.4,3.8,14.1,5.7c13.2,5.3,26.3,10.6,39.5,15.8c2.4,1,4.8,1.9,7.2,2.9
			c18.5,7.4,37,14.7,55.5,22.1c2.5,1,4.9,1.9,7.3,2.9c16.7,6.6,33.3,13.2,50,19.8c2.3,0.9,4.6,1.8,6.9,2.8c7.7,3,15.4,6.1,23,9.1
			c2.6,1,5.2,2.1,7.8,3.1c5,2,9.9,3.9,14.9,5.9c2.7,1.1,5.4,2.1,8.1,3.2c11.1,4.4,22.3,8.9,33.4,13.3c2.4,0.9,4.7,1.9,7.1,2.8
			c24.4,9.8,48.8,19.6,73.2,29.5C6478.6,2745.7,6473.5,2719.7,6456.9,2703"/>
		<path id="path378" class="st4" d="M6054.7,2567.6c-13.9,4.4-29.3-1-38.6-12c-9.9-11.6-14.3-27.6-6.5-41.7
			c7.8-14,24.5-20.9,40-17.4c15,3.4,28.5,16.1,30.2,31.8c0.6,5.7-0.7,11.3-3.3,16.4C6073.7,2555.3,6065.7,2564.2,6054.7,2567.6"/>
		<path id="path380" class="st14" d="M6037.7,2552.5c-5.5-1.1-10.4-4.1-13.8-9c-3.5-5.1-4.7-11.4-3.4-17.5
			c2-9.2,10.7-15.2,19.6-16.1c14.8-1.6,28.2,11.5,25.4,26.5C6063,2549.3,6049.3,2556.4,6037.7,2552.5"/>
		<path id="path382" class="st4" d="M6042.4,2534.9c-3.9,4.1-10.2,3.3-13.5-1c-2-2.5-2.1-5.7-0.9-8.4l0.2-0.7
			c2.6-5,9.4-6.4,13.8-2.8C6046,2525.3,6045.8,2531.3,6042.4,2534.9"/>
		<path id="path384" class="st4" d="M6073.4,2594.5c-3.2,1.8-7.2,1.6-10-0.9c-3.2-2.9-5.1-8-5.2-12.2c-0.1-2.9,1.6-5.6,4.2-6.9
			c2.5-1.1,6-0.9,8,1.2c2.5,2.7,5.2,6,6.5,9.4C6078.1,2588.3,6076.4,2592.8,6073.4,2594.5"/>
		<path id="path386" class="st4" d="M6093.3,2574c-3.5,0.6-6.5-0.6-9.5-2.1c-2.9-1.4-6-3-7.6-5.9c-2.4-4.2-0.9-10.8,4.4-12
			c4.2-1,7.4,0.2,11.2,1.7c3.3,1.3,5.9,3.1,7.9,6.1c1.5,2.3,1.6,5.4,0.3,7.9C6098.5,2572.5,6096.2,2573.6,6093.3,2574"/>
		<path id="path388" class="st4" d="M6109.5,2540.4c-1.9,0.6-3.8,0.6-5.8,0.3l-1-0.2l-2.2,0.1l-0.2,0l-2.5,0.3c-3-0.1-5.7-1.5-7-4.3
			c-1.2-2.5-0.9-6.1,1.2-8.1c2.2-2.1,5-3.3,8-4c3.4-0.8,7.8-1.6,10.9,0.6c2.9,1.9,4.7,4.5,4.4,8.1
			C6115,2536.4,6112.7,2539.3,6109.5,2540.4"/>
		<path id="path390" class="st4" d="M6152.3,2614.5c1.2-2.1,2.3-4.4,3.3-6.6c8.4-17.8,13.5-37.6,15.8-55.9c0.3-2.8,0.6-5.5,0.8-8.1
			l0.2-2.4c0.7-11.4,0.1-22.8-2.1-33.6c-5.4-27.2-20.2-51.4-45.9-65.6c-2.3-1.3-4.7,2.1-2.7,3.9c16.9,14.6,28.5,34.5,34,56
			c3.2,12.2,4.5,24.9,3.7,37.4c-1.8,29.5-13,66.9-35,89.7c4.7,1.9,9.4,3.8,14.1,5.7C6143.8,2628.8,6148.3,2621.9,6152.3,2614.5"/>
		<path id="path392" class="st4" d="M6185.2,2653.7l0.2-2.7c0.1-1.2,0.1-2.4,0-3.6c-0.1-1.2-0.2-2.4-0.4-3.6
			c-1.8-11-8.8-20-17.2-27.2c17.7,0.6,31.9-5.9,39.4-26.3l0.4-1.2c1.1-3.1,1.7-6.1,1.9-8.9c1.3-16.9-11.9-27.7-28.1-32.9
			c11.1-5.2,20.6-13.6,24.7-24.7c0.7-1.6,1.1-3.2,1.5-5c0.6-2.8,0.9-5.8,0.8-8.9c0-1.1-0.1-2.2-0.2-3.3c-2.2-19-19.6-29.6-37.4-24.1
			c-1.8,0.6-0.9,3.3,0.9,2.8c17.1-4.2,29,9.2,30,24.1c0.3,3.9-0.2,7.9-1.6,11.6c-4.5,12.8-15.5,20-27.7,23.8c-1.2,0.4-2.4,0.7-3.6,1
			c-3.3,0.9-2.9,5.9,0.3,6.5l2.5,0.6c20.4,4.6,38.7,16.5,27.3,40.2c-9.2,19-25.2,19.4-43.1,15.7l-1-0.2c-4.1-0.9-5.9,4.7-2.4,6.8
			l0.1,0.1c10.3,6.1,20.4,14.3,24.4,26c1.1,3.4,1.6,6.9,1.4,10.3C6180.5,2651.8,6182.9,2652.7,6185.2,2653.7"/>
		<path id="path394" class="st4" d="M6186.5,2651.1c-4.8,0.4-5.2-7.1-0.4-7.5c12.6-1.1,29.9-1.4,37-14.2c9.3-16.6-1.9-35.1-17.8-41
			c-3.1-1.2-2-5.6,0.6-6.5c31.9-11.4,30.2-51.3-2.1-59.6c-2.4-0.6-2.1-4,0.3-4.2c16.2-1.5,30.1,13.1,32.3,28.5
			c2.4,16.6-7.8,30.6-21.3,38.6c14,7.9,21.4,23.4,17.3,40.2C6227.2,2647.3,6206,2649.4,6186.5,2651.1"/>
		<path id="path396" class="st4" d="M6248.1,2678.7c2-4.3,3.5-8.8,4.4-13.4c0.5-2.4,0.7-4.8,0.9-7.2c0.7-12.6-2.9-25.7-11.2-37.1
			c8.8-5.6,14.3-13.8,16.5-22.5c0.7-2.8,1.1-5.6,1.2-8.4c0.3-12.6-5.8-25.1-18.4-32.4c8.4-7.8,15.4-17.3,17.7-28.3
			c0.2-1.1,0.4-2.2,0.6-3.4c0.3-2.6,0.4-5.4,0-8.2l-0.1-1.2c-1.9-14.5-12.8-27.9-28-28.1c-1,0-1.4,1.6-0.4,2.1
			c12.8,5.7,19.5,15.1,21.1,25.4c2,12.7-3.9,26.8-15.7,36.8c-1.1,0.9-2.3,1.9-3.5,2.7c-2.1,1.5-2.3,5,0.2,6.3l1.3,0.6
			c23,12.1,23.4,42.2-0.5,54.1l-0.8,0.6c-1.3,1.2-1.2,3.2-0.4,4.7l0.6,0.9c13.8,16.1,15.4,36.6,7,53.1
			C6243.2,2676.8,6245.6,2677.8,6248.1,2678.7"/>
		<path id="path398" class="st4" d="M6254.6,2666c-5-0.1-5.5-8-0.4-7.9c14,0.3,27-9.4,29.4-23.6c2.8-17-10.6-31-25.6-36.2
			c-3.5-1.2-3.9-5.7-0.3-7.2c14.1-6,28.4-16.1,29.8-32.8c1.8-21.4-16-23.1-30.4-29.8c-0.8-0.4-0.7-1.8,0.2-2
			c18.6-4.6,36.6,8.4,37.6,27.6c0.9,18.7-12.1,31.5-27.1,40c14.3,7.1,24.9,21.4,24,38.1C6290.7,2651.5,6273.5,2666.4,6254.6,2666"/>
		<path id="path400" class="st4" d="M6314,2683.3l0.3-1c0.4-1.3,0.7-2.6,1-3.9c0.2-1,0.4-2,0.5-2.9c2.6-15.2-1-30.5-13.3-39
			c7.8-4.1,12.6-11.8,14-21.1c0.3-1.9,0.5-3.9,0.5-6l0-1.3c-0.4-14.4-7.4-26.6-18.1-35.5c10.8-3.8,18.7-12,22.6-21.6
			c0.6-1.3,1-2.6,1.5-3.9c0.5-1.6,0.9-3.2,1.1-4.9c2.4-14.7-4.1-30.1-22.5-36.6c-1.2-0.4-1.6,1.4-0.7,1.9
			c11.7,7.5,17.5,20,17.1,31.6c-0.5,12.9-8.5,24.8-24.7,27.9l-2.6,0.4c-3.6,0.4-4.5,4.8-1.5,6.7l0.6,0.4
			c8.3,5.6,14.8,13.2,17.9,22.9c4.1,12.8,1.6,32.3-14.8,34.6l-1,0.3c-2.5,1.2-3.8,5-1,6.5l0.5,0.2c23.1,8.4,21.2,41.2,6.8,59.5
			c2.3,0.9,4.6,1.8,6.9,2.8C6308.9,2695.9,6312,2689.7,6314,2683.3"/>
		<path id="path402" class="st4" d="M6316,2683.5c-5.1,0.6-5.5-7.4-0.4-8c36.3-4.2,36.4-53.1,1.5-60c-4-0.8-3.6-5.9-0.3-7.3
			c27.2-12.1,30.3-46.2,1.8-58.6c-1.4-0.6-0.9-3.1,0.7-3c14.5,0.9,24.9,12.8,26.8,27c2.1,15.3-6.3,28.7-18.3,37
			C6362.8,2624.2,6357,2678.8,6316,2683.5"/>
		<path id="path404" class="st4" d="M6335.7,2713.5c0.1-4.8-0.6-9.7-2-14c-1.3-4.4-4.8-12.8-9.7-17.7c-2.6-2.6-5.6-4.1-8.8-3.4
			l-1.6,0.5l-0.6,1.3l1.2,2.1l1.1,1.3c1.4,1.4,2.9,2.6,4.3,4.2c3.1,3.7,5.2,8.1,6.6,12.7c1.1,3.5,1.6,6.8,1.7,10
			C6330.6,2711.4,6333.2,2712.5,6335.7,2713.5"/>
		<path id="path406" class="st4" d="M6373.8,2699.6l0.4-1.7c0.6-2.5,1-4.9,1.2-7.4c0.7-13.1-5-25.5-15.8-33
			c10.7-5.2,17.8-15.8,18.1-28.2l0-0.9c0-2.6-0.2-4.9-0.8-7.3c-2.5-12.6-11.7-21.7-22.2-29.2c9.1-2.9,16.6-8.7,21-16.3
			c4.5-7.7,5.8-17.3,2.2-27.4c-0.5-1.5-2.7-1.1-2.7,0.5c0.4,8.4-1.3,16.3-5.1,22.6c-4.9,8.4-13.3,14-24.9,15l-0.4,0
			c-3.7,0.3-4.5,4.6-2,6.8l0.5,0.4c10.7,6.8,22.2,14.3,25.7,27.4c4,14.9-4.6,28.7-19.1,32l-1.1,0.2c-3,0.6-3.5,5.3-1,6.8l0.4,0.2
			c18.8,7.4,24.4,27.9,14.9,45.3c-3.2,5.8-7.5,10.4-12.5,14.1c2.7,1.1,5.4,2.1,8.1,3.2C6365.6,2716.7,6371.1,2709,6373.8,2699.6"/>
		<path id="path408" class="st4" d="M6384.3,2695.9c32.2-12.1,32.8-57.4,2.2-71.2c9.3-5,16.3-11.4,20.8-19.6
			c3.7-6.8,5.7-14.8,5.8-24.3c0-1.3-2-1.2-2,0.1c-0.2,7.9-2.9,14.8-7.2,20.6c-6.5,9-16.6,15.6-26.9,19.7l-1.6,0.6
			c-3.3,1.2-3.4,6.2,0.3,7.1l2,0.5c33.1,9.1,31,54.2-2.4,61.2l-0.9,0.2c-3.5,0.6-3.1,5.5-0.6,6.9l0.4,0.2
			c14.5,8.5,20.8,23.6,17.9,38c2.4,0.9,4.7,1.9,7.1,2.8C6403,2723.1,6397.6,2706.8,6384.3,2695.9"/>
		<path id="path410" class="st4" d="M6442.2,2642.4c-3.1,0.9-6.6,0.1-9.8-0.4c-3.2-0.5-6.7-1.2-9.5-3c-2-1.2-1.5-4.3,1-4.5
			c3.1-0.3,6.3,0.3,9.4,0.6c3.2,0.3,6.4,0,9.4,1.2C6445.5,2637.4,6444.8,2641.7,6442.2,2642.4"/>
		<path id="path412" class="st4" d="M6437.9,2664.6c-5.8,0.1-13.7-3-17.7-7.2c-2.3-2.4-0.4-6.3,3-5.7c2.8,0.5,5.4,1.9,8.1,2.8
			c2.8,1,5.6,1.7,8.2,3.1C6442.5,2659.4,6441.7,2664.6,6437.9,2664.6"/>
		<path id="path414" class="st4" d="M6432.3,2684.5c-3.4-1-6.6-2.4-9.9-3.9c-1.6-0.8-3.4-1.5-4.8-2.6c-1.3-1-1.5-1.9-2.2-3.3
			c-0.5-0.8-0.2-2,0.8-2.2c1.4-0.4,2.2-0.9,3.7-0.8c1.7,0.1,3.6,1,5.2,1.6c3.3,1.2,6.7,2.5,9.8,4.2
			C6438.4,2679.4,6436.5,2685.7,6432.3,2684.5"/>
		<path id="path416" class="st4" d="M6430,2701.2c-3.4,0.9-6-0.6-9.1-2c-3.4-1.6-7.2-2.8-10.3-4.9c-2.2-1.5-1.9-5.2,1.2-5.4
			c4.1-0.2,8.1,1.2,11.9,2.5c3.5,1.2,6.8,2.4,8.2,6.1C6432.5,2699,6431.4,2700.8,6430,2701.2"/>
		<path id="path418" class="st4" d="M6423.3,2722.4c-4-1.1-7.2-3.5-10.6-5.8c-2.5-1.7-5.7-3.2-6.1-6.5l0.8-1.5
			c3-1.8,6.6,0.2,9.5,1.5c3.8,1.7,7.5,3.8,10,7.2C6428.6,2719.6,6426,2723.1,6423.3,2722.4"/>
		<path id="path420" class="st4" d="M6646,2368.4c0.5-5.1-189.9-115.5-285.2-158.3c-51.8-23.3-104-45.9-157.9-63.9
			c-65.5-22-133.2-37.3-201.7-45.6c-4.4-0.5-8.9-1-13,0.6c-3.4,1.3-6,3.9-8.5,6.5c-18.4,19.2-32.6,42.3-41.8,67.2
			c-6.6,17.9-15.4,44.3-12.8,63.6c1.8,13.3,20.4,19,31,22.7c10.4,3.6,20.5,7.4,30.6,11.5c6.4,2.6,12.8,5.2,19.1,8
			c39.2,17.1,78.3,34.4,117.9,50.6c19.3,7.9,38.6,15.8,57.9,23.6c130.5,53.3,262.3,104.2,393.4,157.4c8.5,3.5,17.1,6.9,25.6,10.4
			c7.7-26.8,10.4-55.1,7.6-82.9c-0.6-6-1.4-12.3,0.3-18.1C6610.1,2416.6,6645.7,2371.1,6646,2368.4"/>
		<path id="path422" class="st16" d="M6559.4,2447.2c14.4-7.8,22.1-26.3,17.4-42c19.1-1.1,35.8-18.3,36.4-37.4
			c-20-5-40.9-6.5-61.5-4.4c-9.6,1-20,2.7-28.5-1.9c-4.7-2.5-8.3-6.7-11.9-10.7l-1.5-1.6c-1.1-1.2-2.2-2.4-3.4-3.6
			c-8.8-9.2-18.1-17.8-28.1-25.8c-1.8-1.5-3.7-2.9-5.6-4.4c-14.5-11-30-20.7-46.2-29c-2-1.1-4.1-2.1-6.2-3.1
			c-18.6-8.9-38-16.1-58-21.2c-2.5-0.7-5-1.3-7.5-1.9c-14.5-3.4-29.3-5.8-44.1-7.1c-2.3-0.2-4.5-0.4-6.8-0.5
			c-10.4-0.7-20.8-0.9-31.2-0.5c-2.5,0.1-5,0.2-7.5,0.4c-2.4-2-4.7-4.1-7.1-6.1c-17.2-14.6-35-28.8-55.7-37.6
			c-23.5-10.1-51.7-12.5-74.2-0.2c-2.1,1.2-4.3,2.5-6.8,2.7c-2.2,0.1-4.4-0.7-6.5-1.5c-29.5-10.9-63.8-1.8-88.9,17.2
			c-16.2,12.3-29.1,28.3-39.6,45.9c6.4,2.6,12.8,5.2,19.1,8c39.2,17.1,78.3,34.4,117.9,50.6c19.3,7.9,38.6,15.8,57.9,23.6
			c15.1,6.2,30.3,12.4,45.5,18.5c4.7,1.9,9.4,3.8,14.1,5.7c13.1,5.3,26.3,10.6,39.5,15.8c2.4,1,4.8,1.9,7.2,2.9
			c18.5,7.4,37,14.8,55.5,22.1c2.5,1,4.9,2,7.3,2.9c16.7,6.6,33.3,13.2,50,19.8c2.3,0.9,4.6,1.8,6.9,2.8c7.7,3,15.4,6.1,23,9.1
			c2.6,1,5.2,2.1,7.8,3.1c5,2,9.9,3.9,14.9,5.9c2.7,1.1,5.4,2.1,8.1,3.2c11.1,4.4,22.2,8.9,33.4,13.3c2.4,1,4.7,1.9,7.1,2.8
			c24.4,9.8,48.8,19.6,73.2,29.5C6581.2,2489.9,6576,2463.9,6559.4,2447.2"/>
		<path id="path424" class="st4" d="M6157.3,2311.8c-13.9,4.4-29.3-1-38.6-12c-9.9-11.6-14.3-27.6-6.5-41.8
			c7.8-14,24.5-20.9,40-17.4c15,3.4,28.6,16.1,30.2,31.8c0.6,5.7-0.7,11.3-3.3,16.4C6176.3,2299.5,6168.3,2308.4,6157.3,2311.8"/>
		<path id="path426" class="st14" d="M6140.3,2296.7c-5.5-1.1-10.4-4.1-13.8-9c-3.5-5.1-4.7-11.4-3.4-17.5
			c2-9.2,10.7-15.2,19.6-16.1c14.8-1.6,28.2,11.5,25.3,26.5C6165.6,2293.5,6151.9,2300.6,6140.3,2296.7"/>
		<path id="path428" class="st4" d="M6145,2279.1c-3.9,4.1-10.2,3.3-13.5-1c-1.9-2.5-2.1-5.7-0.9-8.4l0.2-0.7
			c2.6-5,9.4-6.4,13.8-2.8C6148.5,2269.5,6148.4,2275.5,6145,2279.1"/>
		<path id="path430" class="st4" d="M6176,2338.7c-3.2,1.8-7.2,1.6-10-0.9c-3.2-2.9-5.1-8-5.2-12.2c-0.1-2.9,1.6-5.6,4.2-6.9
			c2.5-1.1,6-0.9,8,1.2c2.5,2.6,5.2,6,6.5,9.4C6180.7,2332.6,6179,2337,6176,2338.7"/>
		<path id="path432" class="st4" d="M6195.9,2318.3c-3.5,0.5-6.5-0.6-9.5-2.1c-2.9-1.4-6-3-7.6-5.9c-2.4-4.2-0.9-10.8,4.4-12
			c4.2-1,7.4,0.2,11.2,1.7c3.3,1.3,5.9,3.1,7.9,6.1c1.5,2.3,1.6,5.4,0.3,7.9C6201.1,2316.7,6198.7,2317.8,6195.9,2318.3"/>
		<path id="path434" class="st4" d="M6212.1,2284.6c-1.9,0.6-3.8,0.6-5.8,0.3l-1-0.2l-2.2,0.1l-0.2,0l-2.5,0.3c-3-0.1-5.7-1.5-7-4.3
			c-1.2-2.6-0.9-6.1,1.2-8.1c2.2-2.1,5-3.3,8-4c3.4-0.8,7.8-1.6,10.9,0.5c2.9,1.9,4.7,4.5,4.4,8.1
			C6217.6,2280.6,6215.3,2283.5,6212.1,2284.6"/>
		<path id="path436" class="st4" d="M6254.9,2358.7c1.2-2.1,2.3-4.4,3.3-6.6c8.4-17.8,13.5-37.6,15.8-55.9c0.3-2.8,0.6-5.5,0.8-8.1
			l0.2-2.4c0.7-11.4,0.1-22.8-2.1-33.6c-5.4-27.2-20.2-51.4-45.9-65.6c-2.3-1.3-4.7,2.1-2.7,3.9c16.9,14.7,28.5,34.5,34,56
			c3.2,12.2,4.5,24.9,3.7,37.4c-1.8,29.5-13,66.9-35,89.7c4.7,1.9,9.4,3.8,14.1,5.7C6246.4,2373,6250.9,2366.1,6254.9,2358.7"/>
		<path id="path438" class="st4" d="M6287.8,2397.9l0.2-2.6c0-1.2,0.1-2.4,0-3.6c-0.1-1.2-0.2-2.4-0.4-3.6c-1.8-11-8.8-20-17.2-27.2
			c17.7,0.6,31.9-5.9,39.4-26.3l0.4-1.1c1.1-3.1,1.7-6.1,1.9-8.9c1.3-16.9-11.9-27.7-28.1-32.9c11.1-5.2,20.6-13.6,24.7-24.7
			c0.7-1.6,1.1-3.2,1.5-5c0.6-2.8,0.9-5.8,0.8-8.9c0-1.1-0.1-2.2-0.2-3.3c-2.2-19-19.6-29.6-37.4-24.1c-1.8,0.6-0.9,3.3,0.9,2.8
			c17.1-4.2,29,9.2,30,24.1c0.2,3.9-0.2,7.9-1.6,11.6c-4.5,12.8-15.5,20-27.7,23.8c-1.2,0.4-2.4,0.7-3.6,1c-3.3,0.9-2.9,5.9,0.3,6.5
			l2.5,0.5c20.4,4.6,38.7,16.5,27.3,40.2c-9.2,19-25.2,19.4-43.1,15.7l-1-0.2c-4.1-0.9-5.9,4.7-2.5,6.8l0.1,0.1
			c10.3,6.1,20.4,14.3,24.4,26c1.1,3.4,1.6,6.9,1.4,10.3C6283,2396,6285.4,2397,6287.8,2397.9"/>
		<path id="path440" class="st4" d="M6289.1,2395.3c-4.8,0.4-5.2-7.1-0.4-7.5c12.6-1.1,29.9-1.4,37-14.2c9.3-16.6-1.9-35.1-17.8-41
			c-3.1-1.1-2-5.6,0.6-6.5c31.9-11.4,30.3-51.3-2.1-59.6c-2.4-0.6-2.1-4,0.4-4.2c16.2-1.5,30.1,13.1,32.3,28.5
			c2.4,16.6-7.8,30.6-21.3,38.6c14,7.9,21.4,23.4,17.3,40.2C6329.8,2391.5,6308.6,2393.6,6289.1,2395.3"/>
		<path id="path442" class="st4" d="M6350.7,2422.9c2-4.3,3.5-8.8,4.4-13.4c0.5-2.4,0.7-4.8,0.9-7.1c0.7-12.7-2.9-25.8-11.2-37.1
			c8.8-5.6,14.3-13.7,16.6-22.5c0.7-2.8,1.1-5.6,1.2-8.4c0.3-12.6-5.8-25.1-18.4-32.3c8.4-7.8,15.4-17.3,17.7-28.3
			c0.2-1.1,0.4-2.3,0.6-3.4c0.3-2.6,0.4-5.4,0-8.2l-0.1-1.2c-1.9-14.5-12.8-27.9-28-28.1c-1,0-1.4,1.6-0.4,2
			c12.8,5.7,19.5,15.1,21.1,25.4c2,12.7-3.9,26.8-15.7,36.8c-1.1,0.9-2.3,1.9-3.5,2.7c-2.1,1.5-2.4,5,0.2,6.3l1.3,0.6
			c23,12.1,23.4,42.2-0.5,54.1l-0.8,0.6c-1.3,1.2-1.2,3.2-0.4,4.7l0.6,0.9c13.8,16.1,15.4,36.6,7,53.1
			C6345.8,2421,6348.2,2422,6350.7,2422.9"/>
		<path id="path444" class="st4" d="M6357.2,2410.2c-5-0.1-5.4-8-0.4-7.9c14,0.3,27-9.4,29.4-23.6c2.8-17.1-10.6-31.1-25.6-36.2
			c-3.5-1.2-3.9-5.7-0.3-7.2c14.1-6,28.4-16.1,29.8-32.8c1.8-21.4-16-23-30.4-29.8c-0.8-0.4-0.7-1.8,0.2-2
			c18.6-4.6,36.6,8.4,37.6,27.6c0.9,18.7-12.1,31.5-27.1,40c14.3,7.1,24.9,21.4,24,38.1C6393.3,2395.8,6376.1,2410.6,6357.2,2410.2"
			/>
		<path id="path446" class="st4" d="M6416.6,2427.5l0.3-1c0.4-1.3,0.7-2.6,1-3.9c0.2-1,0.4-1.9,0.5-2.9c2.6-15.2-1-30.5-13.3-39
			c7.8-4.1,12.6-11.8,14-21.1c0.3-1.9,0.5-3.9,0.5-6l0-1.3c-0.4-14.4-7.4-26.6-18.1-35.5c10.8-3.8,18.7-12,22.6-21.5
			c0.6-1.3,1-2.6,1.5-3.9c0.5-1.6,0.9-3.2,1.1-4.9c2.4-14.7-4.1-30.1-22.5-36.6c-1.2-0.4-1.6,1.4-0.7,1.9
			c11.7,7.5,17.5,20,17.1,31.6c-0.5,12.9-8.5,24.8-24.6,27.9l-2.6,0.4c-3.6,0.4-4.5,4.8-1.5,6.7l0.6,0.4
			c8.4,5.6,14.8,13.2,17.9,22.9c4.1,12.8,1.6,32.3-14.8,34.6l-1,0.3c-2.5,1.2-3.8,5-1,6.5l0.5,0.2c23.1,8.4,21.2,41.2,6.8,59.5
			c2.3,0.9,4.6,1.8,6.9,2.8C6411.5,2440.1,6414.6,2433.9,6416.6,2427.5"/>
		<path id="path448" class="st4" d="M6418.6,2427.7c-5.1,0.6-5.5-7.4-0.4-8c36.3-4.2,36.4-53.1,1.5-60c-4.1-0.8-3.6-5.9-0.4-7.3
			c27.2-12.1,30.3-46.2,1.8-58.6c-1.4-0.6-0.9-3.1,0.7-3c14.5,0.9,24.9,12.8,26.8,27c2.1,15.3-6.3,28.7-18.3,37
			C6465.4,2368.5,6459.6,2423,6418.6,2427.7"/>
		<path id="path450" class="st4" d="M6438.3,2457.7c0.1-4.8-0.6-9.7-2-14c-1.3-4.4-4.8-12.9-9.7-17.7c-2.6-2.6-5.6-4.1-8.8-3.4
			l-1.6,0.5l-0.7,1.3l1.2,2.1l1.1,1.3c1.4,1.4,2.9,2.6,4.3,4.2c3.1,3.7,5.2,8.1,6.6,12.7c1.1,3.5,1.6,6.8,1.7,10
			C6433.2,2455.7,6435.8,2456.7,6438.3,2457.7"/>
		<path id="path452" class="st4" d="M6476.4,2443.8l0.4-1.7c0.6-2.5,1-4.9,1.2-7.4c0.7-13.1-5-25.5-15.8-33
			c10.7-5.1,17.8-15.8,18.1-28.2l0-0.9c0-2.6-0.2-4.9-0.8-7.3c-2.5-12.6-11.7-21.7-22.2-29.2c9.1-2.9,16.6-8.7,21-16.3
			c4.5-7.7,5.8-17.3,2.2-27.4c-0.5-1.5-2.7-1.1-2.7,0.5c0.4,8.4-1.3,16.3-5.1,22.6c-4.9,8.4-13.3,14-24.9,15l-0.4,0
			c-3.7,0.3-4.5,4.6-2,6.8l0.5,0.4c10.7,6.8,22.2,14.4,25.7,27.4c3.9,14.9-4.6,28.7-19.1,32l-1.1,0.2c-3,0.6-3.5,5.3-1,6.8l0.4,0.2
			c18.8,7.4,24.4,27.9,14.9,45.3c-3.2,5.8-7.5,10.4-12.5,14.1c2.7,1.1,5.4,2.1,8.1,3.2C6468.2,2460.9,6473.6,2453.3,6476.4,2443.8"
			/>
		<path id="path454" class="st4" d="M6486.8,2440.1c32.2-12.1,32.8-57.4,2.2-71.2c9.3-5,16.3-11.4,20.8-19.6
			c3.7-6.8,5.7-14.8,5.8-24.3c0-1.3-2-1.2-2,0.1c-0.2,7.9-2.9,14.8-7.2,20.6c-6.5,9-16.6,15.6-26.9,19.7l-1.6,0.6
			c-3.3,1.2-3.4,6.2,0.3,7.1l2,0.5c33.1,9.1,31,54.2-2.4,61.2l-0.9,0.2c-3.5,0.6-3.1,5.5-0.6,6.9l0.4,0.2
			c14.5,8.5,20.8,23.6,17.9,38c2.4,1,4.7,1.9,7.1,2.8C6505.5,2467.4,6500.2,2451,6486.8,2440.1"/>
		<path id="path456" class="st4" d="M6544.8,2386.7c-3.1,0.9-6.6,0.1-9.8-0.4c-3.2-0.5-6.7-1.2-9.5-3c-2-1.2-1.5-4.3,1-4.6
			c3.1-0.3,6.3,0.3,9.4,0.6c3.2,0.3,6.4,0,9.4,1.2C6548.1,2381.6,6547.4,2385.9,6544.8,2386.7"/>
		<path id="path458" class="st4" d="M6540.5,2408.8c-5.8,0.1-13.7-3-17.7-7.2c-2.3-2.4-0.4-6.3,3-5.7c2.8,0.5,5.4,1.9,8.1,2.8
			c2.8,1,5.6,1.7,8.2,3.1C6545.1,2403.6,6544.3,2408.8,6540.5,2408.8"/>
		<path id="path460" class="st4" d="M6534.8,2428.7c-3.4-1-6.6-2.4-9.9-3.9c-1.6-0.8-3.4-1.5-4.8-2.6c-1.3-1-1.4-1.9-2.2-3.3
			c-0.5-0.8-0.2-2,0.8-2.2c1.4-0.4,2.2-0.9,3.7-0.8c1.7,0.1,3.6,1,5.2,1.6c3.3,1.2,6.7,2.5,9.8,4.2
			C6541,2423.6,6539.1,2430,6534.8,2428.7"/>
		<path id="path462" class="st4" d="M6532.6,2445.4c-3.4,1-6-0.6-9.1-2c-3.4-1.6-7.2-2.8-10.3-4.9c-2.2-1.5-1.9-5.2,1.2-5.4
			c4.1-0.2,8.1,1.2,11.9,2.5c3.5,1.2,6.8,2.4,8.2,6.1C6535.1,2443.2,6534,2445,6532.6,2445.4"/>
		<path id="path464" class="st4" d="M6525.8,2466.6c-4-1.1-7.2-3.5-10.6-5.8c-2.5-1.7-5.7-3.2-6.1-6.5l0.8-1.5
			c3-1.8,6.6,0.2,9.5,1.5c3.8,1.7,7.4,3.8,10,7.2C6531.2,2463.8,6528.6,2467.4,6525.8,2466.6"/>
		<path id="path466" class="st13" d="M5827.9,2152.1c-41.3,110.1-82.1,220.4-122.8,330.7c-19.5,52.9-39.5,105.6-59.1,158.4
			c-17.5,47-30.9,106.3-65.4,144c-3.8,4.2-9.6-0.2-9.8-4.7c-2.7-52.2,26.7-108.9,43.8-157.4c19.6-55.4,39-110.9,59.3-166.1
			c39.6-108.1,79.6-216,120.1-323.8c81.7-217.9,165-435.2,249.8-651.9c9.1-23.3,46.3-11.3,37.1,12.1
			C5994.9,1712.5,5910.6,1932,5827.9,2152.1"/>
		<path id="path468" class="st17" d="M5608.7,2807.3c-20.3,19-46.9,14.5-65-4.7c-28.5-30.1-13.2-77.4,29.7-81
			C5622.6,2717.5,5642.7,2775.4,5608.7,2807.3"/>
		<g id="g470">
			<g>
				<defs>
					<path id="SVGID_00000107590599417575876850000004756070488413046154_" d="M3723.1,1208.4c169-125.8,389.9-195.6,586.6-216.2
						c149.8-15.6,294.9,15.1,440.1,45.7c127.3,26.9,254.7,53.8,385.1,49.5c273.6-9.1,552.3-159,824.8-64.6
						c400.4,138.7,560.9,683.9,587.1,1060.4c30.5,437.9-135.1,799.5-359.9,1161.7c-66.6,107.3-139.9,212.2-234.8,295.4
						c-195.7,171.7-515.5,211.6-766.3,232.4c-453.5,37.6-1291.4-96-1422.6-637.8c-19-78.4-24.2-159.5-39.8-238.7
						c-49.8-253.6-221.7-452.6-280.1-700.7c-56.5-240.3-45-507.5,62.9-732.3C3555.1,1361.3,3631.5,1276.6,3723.1,1208.4"/>
				</defs>
				<clipPath id="SVGID_00000101080251170023867530000016580740107461051059_">
					<use xlink:href="#SVGID_00000107590599417575876850000004756070488413046154_"  style="overflow:visible;"/>
				</clipPath>
				<g id="g472" style="clip-path:url(#SVGID_00000101080251170023867530000016580740107461051059_);">
					<path id="path478" class="st16" d="M6491.5,1518.9h-50v50h50V1518.9z M5641.5,1568.9h50v-50h-50V1568.9z M6361.5,1568.9h50v-50
						h-50V1568.9z M6281.5,1568.9h50v-50h-50V1568.9z M6201.5,1568.9h50v-50h-50V1568.9z M6121.5,1568.9h50v-50h-50V1568.9z
						 M6041.5,1568.9h50v-50h-50V1568.9z M5961.5,1568.9h50v-50h-50V1568.9z M5881.5,1568.9h50v-50h-50V1568.9z M5771.5,1518.9h-50
						v50h50V1518.9z M5801.5,1568.9h50v-50h-50V1568.9z M6661.5,1568.9v20h-1090v-20h40v-50h-40v-20h1090v20h-140v50H6661.5"/>
					<path id="path480" class="st19" d="M6559.9,1878.9v-330h-845.1c-103.8,0-135.1,35.2-143.2,64.7c-1.9,7-2.6,13.6-2.5,19.4
						c0.1,11.8,2.9,20.1,2.9,20.1c0,45.7,183.6,104.9,228.3,118.5c6.2,1.9,9.7,3,9.7,3c178.5,86.9,285.6,104.2,285.6,104.2H6559.9"
						/>
					<path id="path482" class="st8" d="M6103.5,1843.1c-10.6-14.6-28.8-24.5-46.4-33.8c-22.4-11.9-44.6-23.8-67-35.7
						c-11.3-6.1-23-12.2-36.1-15.3c-15.5-3.6-32.1-2.6-48.2-1.2c-28.9,2.5-80.5,1.9-105.6,14.6c6.2,1.9,9.7,3,9.7,3
						c178.5,86.9,285.6,104.2,285.6,104.2h12.5C6113.5,1867.7,6111.2,1853.8,6103.5,1843.1"/>
					<path id="path484" class="st4" d="M6559.9,1633v-19.4h-988.3c-1.9,7-2.6,13.6-2.5,19.4H6559.9"/>
					<path id="path486" class="st20" d="M6318.7,1730h-96.5v103.5h96.5V1730"/>
					<path id="path488" class="st20" d="M6495.5,1730h-96.5v103.5h96.5V1730"/>
				</g>
			</g>
		</g>
		<path id="path490" class="st6" d="M5566.3,3352.4c10.7,9.7,6.3,30.6-7.4,35.1c-9.1,3-19.2-0.7-27.3-5.9
			c-17.8-11.3-30.4-29.1-41.5-47c-4.5-7.4-17.4-28.2-27.1-50.4c-10.9,24.1-23.3,47.5-37.2,70c-8.6,13.9-18.2,27.8-32,36.8
			c-9.5,6.2-22.7,9.4-31.9,2.7c-12.1-8.9-8.8-27.5-4.3-41.8c-7.8,12.1-29.2,11.1-35.8-1.7c-4.4-8.6-2.4-19.1,1.4-27.9
			c8.3-19.4,23.8-34.7,39.8-48.4c7.2-6.2,29.1-25.1,51.9-38.9c-25.4-8-51.2-21.3-59.8-25.6c-18.8-9.6-37.5-20.8-50.1-37.7
			c-5.8-7.7-10.2-17.4-8-26.8c3.4-14.1,24-20.1,34.4-10.1c-7.8-12.9-15.3-30.2-5.6-41.7c7.3-8.7,20.9-8.7,31.6-4.9
			c15.5,5.4,28.1,16.7,39.7,28.2c14.9,14.7,29,30.1,42.4,46.3c-6.6-20.4-10.8-40.3-12.4-47.8c-4.3-20.6-7.4-42.2-2.2-62.7
			c2.4-9.3,7.1-18.9,15.8-23.1c13.1-6.2,30.7,6,29.5,20.4c5.1-14.1,13.8-30.9,28.9-30.6c11.4,0.2,19.9,10.8,23.7,21.5
			c5.5,15.4,4.6,32.3,3.1,48.6c-3,31.2-8.6,62.2-16.5,92.6c29.7-10.1,60.2-17.9,91.1-23.2c16.1-2.8,32.9-4.9,48.7-0.5
			c11,3,22.1,10.7,23.2,22c1.4,15-14.7,24.9-28.4,31c14.3-2.2,27.7,14.4,22.5,27.9c-3.5,9-12.7,14.4-21.8,17.5
			c-20,6.7-41.8,5.2-62.7,2.4c-7.5-1-27-3.6-47.4-8.5c15.5,11.1,30.5,22.9,44.9,35.4c12.4,10.8,24.6,22.4,31.2,37.4
			c4.6,10.4,5.7,23.9-2.4,31.9C5597.5,3365.3,5579.7,3359.1,5566.3,3352.4"/>
		<path id="path492" class="st7" d="M5414.1,3272c-11.2,10.2-23.8,24.5-38.1,29.9c-3,1.1-5.2-2.4-4.1-4.9
			c6.5-14.3,22-26.1,33.2-36.8c11.8-11.4,23.5-25.4,37.7-33.7c4.9-2.9,12.6,2.8,8.9,8.3C5442.1,3249.1,5426.9,3260.4,5414.1,3272"/>
		<path id="path494" class="st7" d="M5413,3329.9c-3.3,2.3-6.8-1.2-6.4-4.6c1.8-15,13.3-29.7,20.8-42.5c7.8-13.2,14.9-30,26.1-40.6
			c4.7-4.4,13.9-0.9,12,6.3c-4.4,15.6-16.3,30.4-24.8,44.1C5432.8,3305.1,5425.3,3321.5,5413,3329.9"/>
		<path id="path496" class="st7" d="M5434.2,3221.4c-13.6-3.5-26.2-12.3-38.6-18.9c-13.9-7.3-26.2-16.2-39.6-24.1
			c-4.6-2.7-1.1-9.1,3.8-7.3c14.6,5.8,29,10.1,43.2,17.1c12.6,6.2,27.1,11.5,37.7,20.7C5446.1,3213.7,5441.1,3223.2,5434.2,3221.4"
			/>
		<path id="path498" class="st7" d="M5440.7,3202.1c-11.2-8.9-20.8-20.4-31-30.6c-9.5-9.5-18.3-18.6-25.9-29.8
			c-1.8-2.6,1.4-5.8,4.1-4.4c23.9,12.2,48.3,33.8,64.6,55.1C5458.2,3199.7,5447.1,3207.2,5440.7,3202.1"/>
		<path id="path500" class="st7" d="M5462.4,3188.5c-8.8-9.9-9.5-23.8-12.1-36.4c-2.7-12.8-7.9-28.5-4.3-41.4
			c0.5-1.8,2.9-2.9,4.4-1.4c8,8.9,10.4,22.2,13.3,33.6c3.3,12.8,6.5,25.7,10.5,38.3C5476.2,3187.6,5467.2,3194,5462.4,3188.5"/>
		<path id="path502" class="st7" d="M5478.5,3183.1c0.1-12,2.2-24.1,3.7-36c1.3-10,1.7-22.2,8.2-30.3c1-1.2,3.3-1,4.1,0.4
			c4.9,9.2,2.9,21.2,2.2,31.2c-0.8,11.9-1,24.3-3.2,36.1C5492,3192.9,5478.5,3191.8,5478.5,3183.1"/>
		<path id="path504" class="st7" d="M5547.6,3199.7c-13.8,4.2-27.5,9.5-41.7,12.4c-8.2,1.7-11.5-9.2-3.8-12.4
			c13.3-5.4,28-8.1,42.1-11.1c10.9-2.3,24-6.2,34.7-2.8l0.3,1C5571.1,3194.4,5558,3196.6,5547.6,3199.7"/>
		<path id="path506" class="st7" d="M5578.3,3235.9c-11.8-0.1-23.1,1.4-35,0.1c-11.4-1.2-24-2.6-34.8-6.4c-8.5-3-5.9-14.3,3-13.5
			c23,2.1,44.8,11.2,67.2,15.5C5581,3232.1,5580.7,3235.9,5578.3,3235.9"/>
		<path id="path508" class="st7" d="M5510.5,3331c-9.2-9.5-15.9-20.3-22.1-31.9c-6.1-11.4-13.9-24.2-16.5-37
			c-1.5-7.4,7.2-11.3,11.8-5.3c8,10.3,12.7,24.5,17.6,36.5c5,12,9.3,24,11,36.9C5512.6,3331.1,5511.2,3331.7,5510.5,3331"/>
		<path id="path510" class="st7" d="M5557.5,3301.6c-10.8,0.7-20.5-7.2-28.6-13.6c-11.5-9.1-25.6-17.9-35.2-28.7
			c-5.3-5.9,0.5-13.9,7.8-11.1c12.9,4.9,22.9,17.4,32.6,26.8c8.2,7.9,19.2,15.7,23.6,26.3L5557.5,3301.6"/>
		<path id="path512" class="st6" d="M3851,2910c14.4-0.2,25.4,18.1,18.4,30.8c-4.7,8.4-14.6,12.6-24,14.3
			c-20.7,3.9-42.1-0.6-62.4-6.2c-8.3-2.3-31.9-8.9-54.2-18.4c8.4,25.1,15.3,50.7,20.3,76.6c3.1,16.1,5.6,32.8,1.6,48.7
			c-2.8,11-10.2,22.4-21.5,23.7c-14.9,1.7-25.2-14.1-31.7-27.7c2.5,14.2-13.8,28-27.4,23.1c-9.1-3.3-14.7-12.4-18-21.4
			c-7.1-19.8-6.1-41.6-3.8-62.6c1.1-9.5,4.3-38.3,11.6-63.8c-24.1,11.4-52,19.3-61.2,21.9c-20.3,5.7-41.6,10.3-62.4,6.5
			c-9.5-1.7-19.4-5.8-24.1-14.2c-7.1-12.6,3.9-31,18.3-30.8c-14.4-4.1-31.7-11.7-32.5-26.7c-0.6-11.3,9.4-20.6,19.8-25.1
			c15-6.5,31.9-6.8,48.3-6.4c20.9,0.6,41.8,2.3,62.5,5.1c-18.8-10.4-35.3-22.2-41.6-26.6c-17.2-12.2-34.2-25.9-44.3-44.4
			c-4.6-8.5-7.6-18.7-4.1-27.7c5.4-13.4,26.6-16.5,35.5-5.1c-5.9-13.8-10.9-32,0.3-42.1c8.4-7.6,21.9-5.6,32-0.4
			c14.5,7.6,25.4,20.5,35.3,33.6c19,24.9,36.1,51.4,50.9,79c14.9-27.6,31.9-54.1,50.9-79c9.9-13,20.8-26,35.3-33.6
			c10.1-5.3,23.5-7.2,32,0.4c11.2,10,6.2,28.2,0.3,42.1c9-11.4,30.1-8.3,35.5,5.1c3.6,8.9,0.5,19.2-4.1,27.7
			c-10.1,18.5-27,32.2-44.3,44.4c-6.2,4.4-22.2,15.7-40.5,26c18.9-2.4,37.9-4,57-4.6c16.4-0.5,33.3-0.3,48.3,6.2
			c10.4,4.5,20.5,13.7,19.9,25C3882.6,2898.2,3865.4,2905.8,3851,2910"/>
		<path id="path514" class="st7" d="M3684.8,2954.7c-1.2,15.1-0.7,34.1-7.6,47.9c-1.4,2.9-5.4,1.8-6.3-0.8
			c-5-14.9-1.6-34.1-0.7-49.6c0.9-16.4-0.1-34.6,4.7-50.4c1.7-5.4,11.1-6.5,12.1,0C3689.7,2918.8,3686.2,2937.5,3684.8,2954.7"/>
		<path id="path516" class="st7" d="M3723.3,2997.8c-0.9,3.9-5.8,3.8-7.8,1c-8.9-12.2-10.4-30.8-13.7-45.3
			c-3.3-15-9.5-32.2-8.5-47.5c0.4-6.4,9.6-10.1,13-3.5c7.5,14.4,8.7,33.3,11.8,49.2C3721,2966.1,3726.6,2983.3,3723.3,2997.8"/>
		<path id="path518" class="st7" d="M3665.1,2903.9c-12.3,6.7-27.6,8.8-41.1,12.5c-15.1,4.1-30.2,6-45.4,9.3c-5.2,1.1-7-6-2.2-7.9
			c14.6-5.8,28.1-12.3,43.3-16.9c13.4-4,27.7-10,41.7-10.5C3668.5,2890.2,3671.4,2900.5,3665.1,2903.9"/>
		<path id="path520" class="st7" d="M3656.7,2885.3c-14.3,1.1-29.2-0.8-43.5-1.3c-13.4-0.5-26.1-1.2-39.2-4.2
			c-3.1-0.7-2.9-5.2,0-6.1c25.8-7.4,58.4-8.1,84.8-3.6C3667.8,2871.6,3664.8,2884.7,3656.7,2885.3"/>
		<path id="path522" class="st7" d="M3663.3,2860.6c-13.2-1.3-23.2-11-33.6-18.4c-10.7-7.6-25.2-15.5-31.3-27.4
			c-0.8-1.6,0.2-4.2,2.3-4c12,1.1,22.7,9.2,32.6,15.5c11.2,7.1,22.2,14.4,33.7,20.9C3672.8,2850.5,3670.6,2861.3,3663.3,2860.6"/>
		<path id="path524" class="st7" d="M3671.5,2845.6c-8.1-8.8-14.8-19.2-21.8-28.9c-5.9-8.2-13.9-17.4-14.6-27.8
			c-0.1-1.6,1.8-3,3.3-2.5c9.8,3.4,16.5,13.5,22.9,21.3c7.6,9.3,15.8,18.5,22.2,28.6C3688,2843.7,3677.4,2852.1,3671.5,2845.6"/>
		<path id="path526" class="st7" d="M3733.4,2810.9c-7.3,12.4-13.7,25.7-22.1,37.4c-4.9,6.8-14.7,1.1-11.2-6.5
			c6.1-13.1,15-25,23.3-36.8c6.4-9.1,13.3-20.9,23.6-25.7l0.9,0.6C3746.9,2790.9,3738.9,2801.5,3733.4,2810.9"/>
		<path id="path528" class="st7" d="M3780.5,2816.5c-8.8,7.9-16,16.7-25.5,23.9c-9.2,6.9-19.3,14.5-29.9,19.1
			c-8.3,3.6-14.1-6.5-7-11.9c18.3-14.1,40.4-22.3,59.8-34.4C3779.9,2811.9,3782.3,2814.8,3780.5,2816.5"/>
		<path id="path530" class="st7" d="M3795.6,2932.3c-13.2-0.7-25.5-4.1-37.9-8.4c-12.3-4.2-26.7-8.2-37.3-15.8
			c-6.2-4.4-2.4-13.2,5-12c12.9,2.1,25.9,9.3,37.7,14.7c11.9,5.4,23.1,11.3,33.2,19.5C3797.1,2930.9,3796.5,2932.3,3795.6,2932.3"/>
		<path id="path532" class="st7" d="M3810,2878.8c-7.5,7.9-19.9,8.7-30.2,9.5c-14.6,1.1-30.9,4.3-45.4,2.9
			c-7.9-0.8-9.1-10.5-1.8-13.5c12.8-5.2,28.6-2.8,42.1-2.6c11.3,0.2,24.7-1.6,35.2,3.2L3810,2878.8"/>
		<path id="path534" class="st6" d="M5434.4,2525.9c9.1-0.1,16.1,11.4,11.7,19.4c-3,5.3-9.2,7.9-15.2,9.1
			c-13.1,2.4-26.6-0.4-39.4-3.9c-5.3-1.5-20.2-5.6-34.2-11.6c5.3,15.8,9.6,32,12.8,48.4c2,10.2,3.5,20.7,1,30.8
			c-1.8,7-6.5,14.1-13.6,15c-9.4,1.1-15.9-8.9-20-17.5c1.6,9-8.7,17.7-17.3,14.6c-5.7-2.1-9.3-7.8-11.4-13.5
			c-4.5-12.5-3.9-26.3-2.4-39.5c0.7-6,2.7-24.2,7.3-40.3c-15.2,7.2-32.9,12.2-38.7,13.8c-12.8,3.6-26.3,6.5-39.4,4.1
			c-6-1.1-12.2-3.7-15.2-9c-4.5-8,2.5-19.6,11.6-19.5c-9.1-2.6-20-7.4-20.5-16.9c-0.4-7.2,6-13,12.5-15.9c9.5-4.1,20.2-4.3,30.5-4
			c13.2,0.4,26.4,1.5,39.5,3.2c-11.9-6.6-22.3-14-26.3-16.8c-10.9-7.7-21.6-16.4-28-28.1c-2.9-5.3-4.8-11.8-2.6-17.5
			c3.4-8.5,16.8-10.4,22.4-3.2c-3.7-8.8-6.9-20.2,0.2-26.6c5.3-4.8,13.9-3.6,20.2-0.2c9.2,4.8,16,13,22.3,21.2
			c12,15.8,22.8,32.5,32.2,49.9c9.4-17.4,20.2-34.2,32.2-49.9c6.3-8.2,13.1-16.4,22.3-21.2c6.4-3.3,14.9-4.6,20.2,0.2
			c7.1,6.3,3.9,17.8,0.2,26.6c5.6-7.2,19-5.2,22.4,3.2c2.3,5.6,0.3,12.1-2.6,17.5c-6.4,11.7-17.1,20.4-28,28.1
			c-3.9,2.8-14,9.9-25.6,16.4c11.9-1.5,23.9-2.5,36-2.9c10.4-0.3,21-0.2,30.5,3.9c6.6,2.8,12.9,8.6,12.6,15.8
			C5454.5,2518.4,5443.6,2523.2,5434.4,2525.9"/>
		<path id="path536" class="st7" d="M5329.5,2554.1c-0.8,9.5-0.5,21.6-4.8,30.2c-0.9,1.8-3.4,1.1-4-0.5c-3.2-9.4-1-21.6-0.5-31.3
			c0.6-10.3-0.1-21.9,3-31.8c1.1-3.4,7-4.1,7.7,0C5332.6,2531.4,5330.4,2543.2,5329.5,2554.1"/>
		<path id="path538" class="st7" d="M5353.8,2581.4c-0.6,2.5-3.7,2.4-5,0.6c-5.6-7.7-6.6-19.4-8.6-28.6c-2.1-9.4-6-20.3-5.4-30
			c0.3-4.1,6.1-6.4,8.2-2.2c4.7,9.1,5.5,21.1,7.5,31.1C5352.4,2561.3,5355.9,2572.1,5353.8,2581.4"/>
		<path id="path540" class="st7" d="M5317,2522c-7.8,4.2-17.5,5.6-26,7.9c-9.5,2.6-19.1,3.8-28.7,5.9c-3.3,0.7-4.4-3.8-1.4-5
			c9.3-3.6,17.8-7.8,27.4-10.7c8.5-2.6,17.5-6.3,26.4-6.6C5319.2,2513.3,5321,2519.8,5317,2522"/>
		<path id="path542" class="st7" d="M5311.7,2510.3c-9,0.7-18.4-0.5-27.5-0.9c-8.5-0.3-16.5-0.7-24.8-2.7c-2-0.5-1.8-3.3,0-3.8
			c16.3-4.6,36.9-5.1,53.6-2.3C5318.8,2501.6,5316.8,2509.9,5311.7,2510.3"/>
		<path id="path544" class="st7" d="M5315.9,2494.6c-8.3-0.8-14.6-6.9-21.3-11.6c-6.7-4.8-15.9-9.8-19.8-17.3
			c-0.5-1,0.1-2.6,1.5-2.5c7.6,0.7,14.3,5.8,20.6,9.8c7,4.5,14,9.1,21.3,13.2C5321.9,2488.3,5320.5,2495.1,5315.9,2494.6"/>
		<path id="path546" class="st7" d="M5321,2485.2c-5.1-5.6-9.4-12.1-13.8-18.3c-3.7-5.2-8.8-11-9.2-17.6c-0.1-1,1.1-1.9,2.1-1.6
			c6.2,2.2,10.4,8.6,14.5,13.5c4.8,5.9,10,11.7,14,18.1C5331.5,2484,5324.8,2489.2,5321,2485.2"/>
		<path id="path548" class="st7" d="M5360.2,2463.2c-4.6,7.9-8.7,16.2-14,23.6c-3.1,4.3-9.3,0.7-7.1-4.1c3.9-8.2,9.5-15.8,14.7-23.2
			c4.1-5.7,8.4-13.2,14.9-16.2l0.6,0.3C5368.7,2450.6,5363.7,2457.3,5360.2,2463.2"/>
		<path id="path550" class="st7" d="M5389.9,2466.8c-5.5,5-10.1,10.6-16.1,15.1c-5.8,4.4-12.2,9.1-18.9,12c-5.2,2.3-8.9-4.1-4.4-7.6
			c11.5-8.9,25.5-14.1,37.8-21.7C5389.6,2463.8,5391.1,2465.7,5389.9,2466.8"/>
		<path id="path552" class="st7" d="M5399.5,2539.9c-8.4-0.4-16.1-2.6-24-5.3c-7.8-2.7-16.9-5.2-23.5-10c-3.9-2.8-1.5-8.3,3.2-7.6
			c8.1,1.3,16.4,5.9,23.8,9.3c7.5,3.4,14.6,7.1,21,12.4L5399.5,2539.9"/>
		<path id="path554" class="st7" d="M5408.6,2506.1c-4.7,5-12.6,5.5-19.1,6c-9.2,0.7-19.5,2.7-28.7,1.8c-5-0.5-5.7-6.6-1.1-8.5
			c8.1-3.3,18-1.8,26.6-1.6c7.1,0.1,15.6-1,22.2,2L5408.6,2506.1"/>
		<path id="path556" class="st6" d="M3644,1578.9c11-8.9,30.7-1.4,32.9,12.6c1.5,9.3-3.6,18.5-9.9,25.6
			c-13.7,15.6-32.9,25.1-52.1,33c-7.8,3.3-30.1,12.5-53.1,18.6c21.8,14.3,42.6,29.9,62.2,46.9c12.2,10.5,24.2,22,30.8,36.7
			c4.6,10.2,5.7,23.5-2.3,31.4c-10.5,10.4-28.1,4.4-41.3-2.2c10.6,9.5,6.3,30.1-7.2,34.5c-9,3-18.9-0.6-26.9-5.7
			c-17.6-11-30-28.5-40.9-46.1c-4.9-8-19.9-32.2-29.8-56.4c-11.7,23.4-28.6,46.5-34.1,54.1c-12.2,16.7-26,33.2-44.3,42.8
			c-8.4,4.4-18.5,7.2-27.2,3.6c-13.1-5.5-15.8-26.3-4.5-35c-13.7,5.6-31.6,10.2-41.4-0.9c-7.3-8.4-5.2-21.6,0.1-31.4
			c7.7-14.2,20.6-24.7,33.5-34.2c16.5-12.2,33.7-23.6,51.5-34c-20.8,3.3-40.8,4.3-48.4,4.7c-20.7,1-42.1,0.7-61.2-7.5
			c-8.7-3.8-17.3-9.8-19.9-18.9c-4-13.6,10.5-28.9,24.3-25.5c-12.9-7.2-27.9-18.2-25.3-32.7c1.9-11,13.6-17.7,24.5-19.7
			c15.8-2.9,32.1,0.5,47.7,4.5c29.9,7.8,59.1,17.9,87.4,30.2c-5.2-30.4-8.1-61.2-8.5-92.1c-0.2-16.1,0.3-32.7,7-47.4
			c4.6-10.2,13.8-19.8,25-19.1c14.7,1,21.9,18.1,25.8,32.3c0-14.2,18.3-24.7,30.6-17.6c8.2,4.8,12.1,14.5,13.6,23.9
			c3.4,20.4-1.4,41.3-7.3,61.2c-2.1,7.1-7.7,25.7-15.6,44.7c13.1-13.3,26.9-26.1,41.3-38.1c12.4-10.3,25.6-20.4,41.2-24.6
			c10.8-2.9,24.1-1.8,30.6,7.3C3661.3,1550.5,3652.6,1566.9,3644,1578.9"/>
		<path id="path558" class="st7" d="M3542.5,1714.3c8.2,12.4,20.2,26.8,23.2,41.6c0.6,3.1-3.1,4.7-5.4,3.2
			c-12.9-8.5-22-25.4-30.7-37.9c-9.2-13.2-21.1-26.7-26.9-41.8c-2-5.2,4.6-11.8,9.4-7.4C3524.6,1683.6,3533.2,1700.1,3542.5,1714.3"
			/>
		<path id="path560" class="st7" d="M3598.6,1724.3c1.7,3.6-2.2,6.4-5.4,5.5c-14.3-4-26.8-17.5-38.1-26.7
			c-11.6-9.6-26.9-19.1-35.4-31.6c-3.6-5.3,1.3-13.7,7.9-10.6c14.5,6.6,27,20.5,39,30.9C3577.5,1701.2,3592.3,1711,3598.6,1724.3"/>
		<path id="path562" class="st7" d="M3496.4,1687c-5.5,12.6-16,23.6-24.2,34.6c-9.2,12.3-19.7,22.9-29.5,34.7
			c-3.4,4.1-9.1-0.4-6.5-4.8c7.8-13.3,14.3-26.6,23.2-39.3c7.9-11.3,15.3-24.6,25.9-33.4C3490.8,1674.3,3499.2,1680.5,3496.4,1687"
			/>
		<path id="path564" class="st7" d="M3478.7,1677.7c-10.4,9.5-23.1,17.1-34.5,25.4c-10.7,7.8-20.9,14.9-32.9,20.6
			c-2.8,1.3-5.4-2.3-3.7-4.7c15.5-21.3,40.3-41.7,63.4-54.2C3479,1660.4,3484.6,1672.3,3478.7,1677.7"/>
		<path id="path566" class="st7" d="M3468.8,1654.6c-11,7-24.6,5.6-37.2,6.2c-12.8,0.6-28.9,3.3-40.9-2.2c-1.6-0.8-2.4-3.3-0.6-4.5
			c9.9-6.4,23.1-6.6,34.6-7.8c12.9-1.3,25.9-2.3,38.8-4.3C3470.1,1641,3474.9,1650.7,3468.8,1654.6"/>
		<path id="path568" class="st7" d="M3466.1,1638.1c-11.6-1.9-23.1-5.8-34.4-9.2c-9.5-2.8-21.3-5-28.1-12.6c-1.1-1.2-0.5-3.4,1-3.9
			c9.7-3.3,21,0.4,30.6,2.6c11.5,2.6,23.5,4.7,34.5,8.7C3477.6,1626.5,3474.5,1639.4,3466.1,1638.1"/>
		<path id="path570" class="st7" d="M3492.9,1573.6c1.9,14.1,5,28.2,5.6,42.4c0.4,8.2-10.8,9.8-12.6,1.7
			c-3.2-13.8-3.6-28.4-4.3-42.6c-0.5-10.9-2.4-24.2,2.6-34.2l1.1-0.2C3491.3,1549.9,3491.4,1562.9,3492.9,1573.6"/>
		<path id="path572" class="st7" d="M3532.7,1549.3c-2,11.5-2.2,22.6-5.2,34c-2.9,10.9-6.2,22.9-11.5,32.9c-4.2,7.8-14.8,3.5-12.7-5
			c5.6-22,17.8-41.8,25.4-62.9C3529.5,1546.1,3533.1,1547,3532.7,1549.3"/>
		<path id="path574" class="st7" d="M3614.6,1629.7c-10.6,7.5-22.2,12.3-34.4,16.5c-12.1,4.2-25.6,9.8-38.4,10.4
			c-7.4,0.3-9.8-8.8-3.4-12.3c11.2-6.2,25.7-8.5,38.1-11.5c12.4-3,24.7-5.3,37.6-5C3615,1627.8,3615.4,1629.2,3614.6,1629.7"/>
		<path id="path576" class="st7" d="M3593.3,1579.6c-1,10.6-10.1,18.8-17.6,25.7c-10.6,9.8-21.3,22.1-33.3,29.8
			c-6.6,4.2-13.4-2.6-9.6-9.3c6.7-11.8,20.4-19.5,31-27.6c8.9-6.7,18.2-16.2,29.2-18.9L3593.3,1579.6"/>
		<path id="path578" class="st6" d="M4282,1192.5c6-4.8,16.6-0.8,17.8,6.8c0.8,5-2,10-5.3,13.8c-7.4,8.4-17.8,13.5-28.1,17.8
			c-4.2,1.8-16.2,6.8-28.7,10c11.7,7.7,23,16.2,33.6,25.3c6.6,5.7,13.1,11.9,16.6,19.8c2.5,5.5,3.1,12.7-1.2,16.9
			c-5.7,5.6-15.1,2.3-22.3-1.2c5.7,5.1,3.4,16.2-3.9,18.6c-4.9,1.6-10.2-0.3-14.5-3.1c-9.5-5.9-16.2-15.4-22.1-24.9
			c-2.7-4.3-10.8-17.4-16.1-30.4c-6.3,12.7-15.4,25.1-18.4,29.2c-6.6,9-14,17.9-23.9,23.1c-4.5,2.4-10,3.9-14.7,1.9
			c-7.1-2.9-8.5-14.2-2.4-18.9c-7.4,3-17.1,5.5-22.3-0.5c-4-4.6-2.8-11.7,0.1-17c4.1-7.6,11.1-13.3,18.1-18.5
			c8.9-6.6,18.2-12.7,27.8-18.4c-11.2,1.8-22,2.3-26.1,2.5c-11.2,0.5-22.8,0.4-33-4.1c-4.7-2-9.3-5.3-10.8-10.2
			c-2.2-7.4,5.7-15.6,13.1-13.8c-7-3.9-15-9.8-13.6-17.7c1-5.9,7.3-9.5,13.2-10.6c8.5-1.6,17.3,0.2,25.8,2.4
			c16.1,4.2,31.9,9.7,47.1,16.3c-2.8-16.4-4.4-33-4.6-49.7c-0.1-8.7,0.2-17.7,3.8-25.6c2.5-5.5,7.5-10.7,13.5-10.3
			c8,0.5,11.8,9.8,13.9,17.5c0-7.7,9.9-13.3,16.5-9.5c4.4,2.6,6.5,7.8,7.4,12.9c1.9,11-0.7,22.3-3.9,33.1
			c-1.1,3.8-4.1,13.8-8.4,24.1c7.1-7.2,14.5-14.1,22.3-20.6c6.7-5.6,13.8-11,22.2-13.3c5.8-1.6,13-1,16.5,3.9
			C4291.4,1177.1,4286.6,1186,4282,1192.5"/>
		<path id="path580" class="st7" d="M4227.2,1265.5c4.4,6.7,10.9,14.5,12.5,22.4c0.3,1.7-1.7,2.5-2.9,1.7
			c-7-4.6-11.8-13.7-16.5-20.5c-5-7.1-11.4-14.4-14.5-22.6c-1.1-2.8,2.5-6.3,5.1-4C4217.6,1249,4222.2,1257.9,4227.2,1265.5"/>
		<path id="path582" class="st7" d="M4257.5,1270.9c0.9,1.9-1.2,3.5-2.9,3c-7.7-2.2-14.4-9.4-20.5-14.4
			c-6.3-5.2-14.5-10.3-19.1-17.1c-1.9-2.8,0.7-7.4,4.3-5.7c7.8,3.6,14.6,11.1,21,16.7C4246.1,1258.5,4254.1,1263.8,4257.5,1270.9"/>
		<path id="path584" class="st7" d="M4202.4,1250.8c-3,6.8-8.6,12.7-13.1,18.7c-5,6.7-10.6,12.4-15.9,18.7c-1.8,2.2-4.9-0.2-3.5-2.6
			c4.2-7.2,7.7-14.4,12.5-21.2c4.3-6.1,8.3-13.2,14-18C4199.3,1243.9,4203.9,1247.3,4202.4,1250.8"/>
		<path id="path586" class="st7" d="M4192.8,1245.8c-5.6,5.1-12.4,9.2-18.6,13.7c-5.8,4.2-11.3,8.1-17.8,11.1
			c-1.5,0.7-2.9-1.2-2-2.5c8.4-11.5,21.8-22.5,34.2-29.3C4193,1236.4,4196,1242.9,4192.8,1245.8"/>
		<path id="path588" class="st7" d="M4187.5,1233.3c-6,3.8-13.3,3-20.1,3.3c-6.9,0.3-15.6,1.8-22.1-1.2c-0.9-0.4-1.3-1.8-0.4-2.4
			c5.4-3.5,12.5-3.6,18.7-4.2c7-0.7,14-1.2,20.9-2.3C4188.1,1226,4190.7,1231.2,4187.5,1233.3"/>
		<path id="path590" class="st7" d="M4186,1224.4c-6.3-1-12.5-3.2-18.6-4.9c-5.1-1.5-11.5-2.7-15.2-6.8l0.5-2.1
			c5.2-1.8,11.3,0.2,16.6,1.4c6.2,1.4,12.6,2.6,18.6,4.7C4192.2,1218.2,4190.5,1225.1,4186,1224.4"/>
		<path id="path592" class="st7" d="M4200.4,1189.6c1,7.6,2.7,15.2,3,22.9c0.2,4.4-5.8,5.3-6.8,0.9c-1.7-7.4-1.9-15.3-2.3-23
			c-0.3-5.9-1.3-13.1,1.4-18.4l0.6-0.1C4199.6,1176.8,4199.7,1183.8,4200.4,1189.6"/>
		<path id="path594" class="st7" d="M4221.9,1176.5c-1.1,6.2-1.2,12.2-2.8,18.3c-1.6,5.9-3.3,12.4-6.2,17.7c-2.3,4.2-8,1.9-6.8-2.7
			c3-11.9,9.6-22.5,13.7-33.9C4220.2,1174.7,4222.2,1175.2,4221.9,1176.5"/>
		<path id="path596" class="st7" d="M4266.2,1219.9c-5.7,4.1-12,6.6-18.6,8.9c-6.5,2.3-13.8,5.3-20.8,5.6c-4,0.2-5.3-4.7-1.8-6.6
			c6.1-3.3,13.9-4.6,20.6-6.2c6.7-1.6,13.4-2.9,20.3-2.7L4266.2,1219.9"/>
		<path id="path598" class="st7" d="M4254.7,1192.9c-0.5,5.7-5.5,10.1-9.5,13.8c-5.7,5.3-11.5,11.9-18,16.1c-3.6,2.3-7.2-1.4-5.2-5
			c3.6-6.4,11-10.6,16.7-14.9c4.8-3.6,9.8-8.8,15.8-10.2L4254.7,1192.9"/>
		<path id="path600" class="st6" d="M6267.9,1281.7c9.1,3,12,16.8,4.9,23.2c-4.7,4.3-11.8,4.7-18.1,3.7
			c-13.8-2.1-26.1-9.5-37.6-17.4c-4.7-3.3-18-12.5-29.8-23.3c-0.1,17.5-1.4,35-3.9,52.3c-1.5,10.7-3.6,21.7-9.5,30.8
			c-4.1,6.3-11.2,11.8-18.6,10.1c-9.7-2.2-12.7-14.3-13.8-24.2c-1.5,9.4-14.7,14.5-22.1,8.5c-5-4-6.5-10.9-6.6-17.3
			c-0.2-13.9,5.2-27.3,11.2-39.9c2.7-5.7,10.9-23,21-37.4c-17.5,1.9-36.7,0.8-43,0.4c-13.9-0.8-28.2-2.6-40.4-9.5
			c-5.5-3.1-10.8-7.8-11.9-14.1c-1.7-9.4,9.1-18.5,18.1-15.3c-8.1-5.7-17.3-14.2-14.5-23.7c2.1-7.2,10.3-10.8,17.8-11.4
			c10.8-0.8,21.4,2.7,31.6,6.5c12.9,4.9,25.6,10.5,38,16.7c-9.5-10.6-17.3-21.5-20.2-25.6c-8.1-11.3-15.7-23.6-18-37.3
			c-1-6.3-0.7-13.3,3.5-18.2c6.3-7.2,20.1-4.5,23.3,4.5c-0.6-9.9,0.2-22.4,9.3-26.2c6.9-2.9,14.9,1.2,20,6.7
			c7.4,7.9,11.4,18.3,14.8,28.6c6.5,19.7,11.4,39.9,14.7,60.4c15.3-14,31.6-26.9,48.9-38.3c9-6,18.6-11.7,29.3-13.3
			c7.4-1.1,16.3,0.6,19.9,7.2c4.8,8.7-2.2,19-8.9,26.3c8-5.2,20.6,1.3,21.1,10.9c0.3,6.3-3.8,12.1-8.5,16.4
			c-10.3,9.4-23.9,14.3-37.3,18.2c-4.8,1.4-17.3,5-30.9,7.5c12.3,2.6,24.5,5.7,36.6,9.5c10.3,3.2,20.9,7,28.8,14.3
			c5.6,5.1,9.8,13,7,19.9C6290.2,1281.1,6277.8,1282.1,6267.9,1281.7"/>
		<path id="path602" class="st7" d="M6154.4,1273.6c-4,9.2-7.8,21.2-15.1,28.2c-1.5,1.5-3.8-0.1-3.8-1.9
			c0.1-10.4,6.4-21.7,10.3-31.1c4.1-10,7.4-21.6,13.8-30.4c2.2-3,8.4-1.7,7.6,2.6C6165.2,1252.3,6159,1263.1,6154.4,1273.6"/>
		<path id="path604" class="st7" d="M6169.1,1308.9c-1.4,2.3-4.5,1.1-5.1-1.1c-2.9-9.6,0.1-21.5,1.3-31.2c1.2-10.1,1-22.2,5-31.5
			c1.7-3.9,8.2-4.2,8.9,0.6c1.5,10.6-1.8,22.7-3.3,33.3C6174.5,1288.6,6174.3,1300.5,6169.1,1308.9"/>
		<path id="path606" class="st7" d="M6153.1,1237.6c-9.1,1.5-19.2-0.5-28.4-1.1c-10.3-0.7-20.1-2.8-30.4-4c-3.5-0.4-3.1-5.3,0.4-5.4
			c10.4-0.4,20.2-1.6,30.7-1.2c9.3,0.4,19.5-0.3,28.3,2.5C6158.2,1229.8,6157.7,1236.8,6153.1,1237.6"/>
		<path id="path608" class="st7" d="M6151.8,1224.2c-9.2-2.4-18-6.8-26.9-10.3c-8.3-3.2-16.1-6.4-23.6-11.1
			c-1.8-1.1-0.7-3.9,1.3-3.8c17.7,1,38.2,7.6,53.8,16.1C6161.8,1218,6157.1,1225.5,6151.8,1224.2"/>
		<path id="path610" class="st7" d="M6161.3,1210.2c-8-3.7-12.1-11.9-17-18.8c-5-7-12.4-15.1-13.6-23.9c-0.2-1.2,1-2.6,2.3-2
			c7.2,3.3,12.2,10.7,17,16.8c5.4,6.9,10.7,13.8,16.5,20.4C6169.5,1205.9,6165.7,1212.2,6161.3,1210.2"/>
		<path id="path612" class="st7" d="M6169.7,1202.6c-3.2-7.3-5.1-15.2-7.4-22.8c-1.9-6.4-4.9-13.9-3.1-20.5c0.3-1,1.8-1.5,2.6-0.8
			c5.4,4.3,7.4,12,9.7,18.3c2.7,7.4,5.9,15,7.7,22.7C6180.4,1204.9,6172,1207.9,6169.7,1202.6"/>
		<path id="path614" class="st7" d="M6215.9,1194.3c-7.2,6.2-14.1,13.1-21.9,18.6c-4.5,3.2-9.4-2.5-5.6-6.5
			c6.6-6.8,14.8-12.4,22.5-17.9c6-4.3,12.9-10.1,20.3-10.9l0.5,0.5C6228.7,1184.8,6221.4,1189.6,6215.9,1194.3"/>
		<path id="path616" class="st7" d="M6244.1,1208c-7.2,3.1-13.6,7-21.1,9.4c-7.2,2.3-15.2,4.8-22.8,5.4c-5.9,0.5-7.4-7.1-1.8-9
			c14.5-4.8,30.1-5.1,44.8-8.5C6244.7,1205,6245.6,1207.3,6244.1,1208"/>
		<path id="path618" class="st7" d="M6228.4,1283.6c-8.1-3.3-15-8.1-21.9-13.4c-6.8-5.3-14.9-10.9-19.9-18c-2.9-4.1,1.4-8.7,5.7-6.4
			c7.6,4.1,14.2,11.4,20.4,17.3c6.2,5.9,12,12,16.5,19.4L6228.4,1283.6"/>
		<path id="path620" class="st7" d="M6249,1253.3c-6.4,3.3-14.3,1.1-20.9-0.6c-9.4-2.4-20.2-4-29-8c-4.8-2.2-3.4-8.5,1.8-8.8
			c9.1-0.5,18.5,4.4,26.9,7.5c7,2.6,15.8,4.4,21.3,9.6L6249,1253.3"/>
		<path id="path622" class="st6" d="M6012.7,2912.6c3.9-4.8,12.9-3.3,15,2.5c1.5,3.8,0.1,8.2-2,11.7c-4.5,7.8-11.8,13.5-19.2,18.5
			c-3,2.1-11.7,7.9-20.9,12.5c10.5,4.2,20.6,9,30.4,14.5c6.1,3.4,12.2,7.2,16.2,12.9c2.8,3.9,4.4,9.5,1.7,13.5
			c-3.6,5.3-11.5,4.3-17.7,2.6c5.3,3.1,5.3,12.2-0.1,15.3c-3.6,2-8.1,1.4-11.9-0.1c-8.4-3.2-15.2-9.5-21.3-16
			c-2.8-3-11.2-11.9-17.5-21.3c-2.9,10.9-8.1,22.2-9.8,25.9c-3.7,8.1-8.1,16.3-15.1,22c-3.2,2.6-7.2,4.7-11.2,3.9
			c-6-1.2-9-9.8-4.9-14.4c-5.3,3.5-12.5,7.1-17.6,3.2c-3.8-2.9-4.1-8.7-2.7-13.3c2-6.7,6.6-12.2,11.2-17.4
			c6-6.6,12.3-12.9,18.9-18.9c-8.5,3.2-16.9,5.4-20.1,6.2c-8.7,2.2-17.8,3.9-26.6,2.1c-4-0.8-8.2-2.7-10.1-6.3
			c-2.9-5.4,2-13.1,8.1-12.9c-6.1-1.9-13.4-5.3-13.5-11.7c-0.1-4.8,4.2-8.6,8.7-10.5c6.5-2.6,13.6-2.6,20.6-2.2
			c13.3,0.7,26.6,2.5,39.6,5.3c-4.8-12.4-8.7-25.2-11.6-38.3c-1.5-6.8-2.7-13.9-1.1-20.7c1.1-4.7,4.1-9.6,8.9-10.3
			c6.3-0.9,10.9,5.8,13.7,11.5c-1.2-6,5.6-12,11.5-10.1c3.9,1.3,6.4,5.1,7.8,8.9c3.2,8.4,3,17.6,2.2,26.6c-0.3,3.2-1,11.5-2.8,20.3
			c4.4-6.8,9.1-13.4,14.2-19.7c4.3-5.4,9.1-10.9,15.3-13.9c4.3-2.1,10.1-2.9,13.6,0.4C6017.6,2899.1,6015.3,2906.8,6012.7,2912.6"/>
		<path id="path624" class="st7" d="M5981.4,2978.8c4.5,4.6,10.9,9.6,13.4,15.6c0.5,1.2-0.9,2.3-2,1.8c-6.2-2.5-11.5-8.9-16.3-13.4
			c-5-4.8-11.2-9.5-15-15.4c-1.3-2.1,1-5.4,3.4-3.9C5971.1,2967.3,5976.2,2973.6,5981.4,2978.8"/>
		<path id="path626" class="st7" d="M6006,2978.2c1,1.4-0.4,2.9-1.8,2.8c-6.4-0.5-12.9-5.1-18.4-8.1c-5.8-3.1-13-5.8-17.7-10.4
			c-2-1.9-0.6-5.9,2.5-5.2c6.7,1.6,13.2,6.4,19.2,9.7C5995.1,2970.2,6002.2,2973.1,6006,2978.2"/>
		<path id="path628" class="st7" d="M5959.5,2971.2c-1.2,5.8-4.8,11.4-7.3,16.8c-2.9,6-6.4,11.4-9.5,17.3c-1.1,2-3.9,0.6-3.1-1.5
			c2.2-6.3,3.8-12.5,6.5-18.7c2.4-5.5,4.4-11.7,8.1-16.4C5956,2966.3,5960.1,2968.2,5959.5,2971.2"/>
		<path id="path630" class="st7" d="M5951.1,2968.8c-3.6,4.9-8.3,9.2-12.4,13.7c-3.9,4.2-7.6,8.1-12.2,11.6c-1.1,0.8-2.5-0.5-2-1.7
			c4.7-10.4,13.5-21.1,22.2-28.5C5949.8,2961.4,5953.2,2966,5951.1,2968.8"/>
		<path id="path632" class="st7" d="M5945,2959.8c-4.1,3.9-9.9,4.5-15.2,5.8c-5.4,1.4-12,3.9-17.5,2.6l-0.7-1.8
			c3.6-3.6,9.2-4.8,14-6.3c5.4-1.6,10.8-3.2,16.1-5.2C5944.3,2954,5947.2,2957.6,5945,2959.8"/>
		<path id="path634" class="st7" d="M5942.4,2953c-5.1,0.2-10.3-0.5-15.4-0.9c-4.3-0.4-9.5-0.3-13-2.9l0.1-1.8
			c3.8-2.2,8.9-1.6,13.2-1.5c5.1,0.1,10.4,0,15.4,0.7C5946.3,2947.1,5946.1,2952.9,5942.4,2953"/>
		<path id="path636" class="st7" d="M5948.2,2923.4c2,5.8,4.5,11.5,6,17.5c0.9,3.5-3.7,5.1-5.2,1.8c-2.5-5.6-4-11.8-5.5-17.7
			c-1.2-4.6-3.1-10.1-1.8-14.7l0.4-0.2C5945.4,2913.5,5946.6,2919,5948.2,2923.4"/>
		<path id="path638" class="st7" d="M5963,2909.7c0.1,5,1,9.8,0.7,14.9c-0.3,4.9-0.6,10.2-2,14.9c-1.1,3.7-6,2.8-5.8-1
			c0.5-9.8,3.9-19.2,5.3-28.8C5961.3,2908.6,5962.9,2908.6,5963,2909.7"/>
		<path id="path640" class="st7" d="M6004.6,2936.7c-3.9,4.1-8.3,7.1-13.2,10c-4.7,2.8-10,6.4-15.4,7.7c-3.1,0.8-4.9-2.9-2.5-4.9
			c4.2-3.6,10.2-5.8,15.2-8.2c5-2.3,10-4.4,15.5-5.4L6004.6,2936.7"/>
		<path id="path642" class="st7" d="M5991.3,2917.3c0.5,4.6-2.7,8.8-5.3,12.4c-3.6,5.1-7.1,11.2-11.6,15.5c-2.4,2.4-5.9,0-4.9-3.1
			c1.8-5.6,6.9-10,10.8-14.4c3.2-3.6,6.3-8.4,10.7-10.5L5991.3,2917.3"/>
		<path id="path644" class="st6" d="M5742.7,1302.6c3.9-4.8,12.9-3.3,15,2.5c1.5,3.8,0.1,8.2-2,11.7c-4.5,7.8-11.8,13.5-19.2,18.5
			c-3,2.1-11.7,7.9-20.9,12.5c10.5,4.2,20.6,9,30.4,14.5c6.1,3.4,12.2,7.2,16.2,12.9c2.8,3.9,4.4,9.5,1.7,13.5
			c-3.6,5.3-11.5,4.3-17.7,2.6c5.3,3.1,5.3,12.2-0.1,15.3c-3.6,2-8.1,1.4-11.9-0.1c-8.4-3.2-15.2-9.5-21.3-16
			c-2.8-3-11.2-11.9-17.5-21.3c-2.9,10.9-8.1,22.2-9.8,25.9c-3.7,8.2-8.1,16.3-15.1,22c-3.2,2.6-7.2,4.7-11.2,3.9
			c-6-1.2-9-9.8-4.9-14.4c-5.3,3.5-12.5,7.1-17.6,3.2c-3.8-2.9-4.1-8.7-2.7-13.3c2-6.7,6.6-12.2,11.2-17.4
			c6-6.6,12.3-12.9,18.9-18.9c-8.5,3.2-16.9,5.3-20.1,6.2c-8.7,2.2-17.8,3.9-26.6,2.1c-4-0.8-8.2-2.7-10.1-6.3
			c-2.9-5.4,2-13.2,8.1-12.9c-6.1-1.9-13.4-5.3-13.5-11.7c-0.1-4.8,4.2-8.7,8.7-10.5c6.5-2.6,13.6-2.6,20.6-2.2
			c13.3,0.7,26.6,2.5,39.6,5.3c-4.8-12.4-8.7-25.2-11.6-38.3c-1.5-6.8-2.7-13.9-1.1-20.7c1.1-4.7,4.1-9.6,8.9-10.3
			c6.3-0.9,10.9,5.8,13.7,11.5c-1.2-6,5.6-12.1,11.5-10.1c3.9,1.3,6.4,5.1,7.8,8.9c3.2,8.4,3,17.7,2.2,26.6
			c-0.3,3.2-1,11.5-2.8,20.3c4.4-6.8,9.1-13.4,14.2-19.7c4.3-5.4,9.1-10.9,15.3-14c4.3-2.1,10.1-2.8,13.6,0.4
			C5747.6,1289.1,5745.3,1296.8,5742.7,1302.6"/>
		<path id="path646" class="st7" d="M5711.4,1368.8c4.5,4.6,10.9,9.6,13.4,15.6c0.5,1.2-0.9,2.3-2,1.8c-6.2-2.5-11.5-8.9-16.3-13.4
			c-5-4.8-11.2-9.5-15-15.4c-1.3-2,1-5.4,3.4-3.9C5701.1,1357.3,5706.2,1363.6,5711.4,1368.8"/>
		<path id="path648" class="st7" d="M5736,1368.2c1,1.4-0.4,2.9-1.8,2.8c-6.4-0.5-12.9-5.1-18.4-8.1c-5.8-3-13-5.8-17.7-10.3
			c-2-1.9-0.6-5.9,2.5-5.2c6.7,1.6,13.2,6.3,19.2,9.7C5725.1,1360.2,5732.2,1363.1,5736,1368.2"/>
		<path id="path650" class="st7" d="M5689.5,1361.2c-1.2,5.8-4.8,11.4-7.3,16.8c-2.9,6-6.4,11.4-9.5,17.3c-1.1,2-3.9,0.6-3.1-1.5
			c2.2-6.3,3.8-12.5,6.5-18.7c2.4-5.5,4.4-11.7,8.1-16.4C5686,1356.3,5690.1,1358.2,5689.5,1361.2"/>
		<path id="path652" class="st7" d="M5681.1,1358.8c-3.6,4.9-8.3,9.2-12.4,13.7c-3.9,4.2-7.6,8.2-12.2,11.6c-1.1,0.8-2.5-0.5-2-1.7
			c4.7-10.4,13.5-21.1,22.2-28.5C5679.8,1351.4,5683.2,1356,5681.1,1358.8"/>
		<path id="path654" class="st7" d="M5675,1349.8c-4.1,3.9-9.9,4.5-15.2,5.8c-5.4,1.4-12,3.9-17.5,2.6l-0.7-1.8
			c3.6-3.6,9.2-4.8,14-6.3c5.4-1.7,10.8-3.2,16.1-5.2C5674.3,1344,5677.2,1347.6,5675,1349.8"/>
		<path id="path656" class="st7" d="M5672.4,1343c-5.1,0.2-10.3-0.5-15.4-0.9c-4.3-0.3-9.5-0.3-13-2.9l0.1-1.8
			c3.8-2.2,8.9-1.6,13.2-1.5c5.1,0.1,10.4,0,15.4,0.7C5676.3,1337.1,5676.1,1342.9,5672.4,1343"/>
		<path id="path658" class="st7" d="M5678.2,1313.4c2,5.8,4.5,11.5,6,17.5c0.9,3.5-3.7,5.1-5.2,1.8c-2.5-5.6-4-11.8-5.5-17.7
			c-1.2-4.6-3.1-10.1-1.8-14.7l0.4-0.2C5675.4,1303.5,5676.6,1309,5678.2,1313.4"/>
		<path id="path660" class="st7" d="M5693,1299.7c0.1,5,1,9.8,0.7,14.9c-0.3,4.9-0.6,10.2-2,14.9c-1.1,3.7-6,2.8-5.8-1
			c0.5-9.8,3.9-19.2,5.3-28.8C5691.3,1298.6,5692.9,1298.6,5693,1299.7"/>
		<path id="path662" class="st7" d="M5734.6,1326.7c-3.9,4.1-8.3,7.1-13.2,10c-4.7,2.8-10,6.4-15.4,7.7c-3.1,0.8-4.9-2.9-2.5-4.9
			c4.2-3.6,10.2-5.8,15.2-8.2c5-2.3,10-4.4,15.5-5.4L5734.6,1326.7"/>
		<path id="path664" class="st7" d="M5721.3,1307.3c0.5,4.6-2.7,8.8-5.3,12.4c-3.6,5.1-7.1,11.2-11.6,15.5c-2.4,2.3-5.9,0-4.9-3.1
			c1.8-5.6,6.9-10,10.8-14.4c3.2-3.6,6.3-8.4,10.7-10.5L5721.3,1307.3"/>
	</g>
</g>
</svg>
